<?xml version="1.0" encoding="UTF-8" standalone="no"?>
<!-- Created with Inkscape (http://www.inkscape.org/) -->

<svg
   xmlns:dc="http://purl.org/dc/elements/1.1/"
   xmlns:cc="http://creativecommons.org/ns#"
   xmlns:rdf="http://www.w3.org/1999/02/22-rdf-syntax-ns#"
   xmlns:svg="http://www.w3.org/2000/svg"
   xmlns="http://www.w3.org/2000/svg"
   xmlns:sodipodi="http://sodipodi.sourceforge.net/DTD/sodipodi-0.dtd"
   xmlns:inkscape="http://www.inkscape.org/namespaces/inkscape"
   width="147.51868mm"
   height="94.744614mm"
   viewBox="0 0 147.51867 94.744612"
   version="1.1"
   id="svg7448"
   sodipodi:docname="about_background.svg"
   inkscape:version="0.92.0 r15299">
  <defs
     id="defs7442" />
  <sodipodi:namedview
     id="base"
     pagecolor="#ffffff"
     bordercolor="#666666"
     borderopacity="1.0"
     inkscape:pageopacity="0.0"
     inkscape:pageshadow="2"
     inkscape:zoom="0.49497475"
     inkscape:cx="-40.522052"
     inkscape:cy="39.910224"
     inkscape:document-units="mm"
     inkscape:current-layer="layer1"
     showgrid="false"
     fit-margin-top="0"
     fit-margin-left="0"
     fit-margin-right="0"
     fit-margin-bottom="0"
     inkscape:window-width="1366"
     inkscape:window-height="693"
     inkscape:window-x="-9"
     inkscape:window-y="-9"
     inkscape:window-maximized="1" />
  <metadata
     id="metadata7445">
    <rdf:RDF>
      <cc:Work
         rdf:about="">
        <dc:format>image/svg+xml</dc:format>
        <dc:type
           rdf:resource="http://purl.org/dc/dcmitype/StillImage" />
        <dc:title></dc:title>
      </cc:Work>
    </rdf:RDF>
  </metadata>
  <g
     inkscape:label="Layer 1"
     inkscape:groupmode="layer"
     id="layer1"
     transform="translate(440.006,-195.44453)">
    <flowRoot
       xml:space="preserve"
       id="flowRoot8017"
       style="font-style:normal;font-variant:normal;font-weight:normal;font-stretch:normal;font-size:180px;line-height:25px;font-family:'8514fix';-inkscape-font-specification:'8514fix';letter-spacing:0px;word-spacing:0px;fill:#000000;fill-opacity:1;stroke:none;stroke-width:1px;stroke-linecap:butt;stroke-linejoin:miter;stroke-opacity:1"
       transform="matrix(0.26458333,0,0,0.26458333,-447.49946,110.1943)"><flowRegion
         id="flowRegion8019"><rect
           id="rect8021"
           width="588.57141"
           height="305.71429"
           x="231.42857"
           y="106.36027" /></flowRegion><flowPara
         id="flowPara8023"></flowPara></flowRoot>    <g
       id="g10183">
      <rect
         y="194.37163"
         x="-580.67462"
         height="185.62009"
         width="297.28857"
         id="rect10128"
         style="opacity:1;vector-effect:none;fill:#eff0f5;fill-opacity:1;fill-rule:nonzero;stroke:#ffffff;stroke-width:1.39999998;stroke-linecap:round;stroke-linejoin:bevel;stroke-miterlimit:4;stroke-dasharray:none;stroke-dashoffset:0;stroke-opacity:1" />
      <circle
         inkscape:transform-center-y="12.828938"
         inkscape:transform-center-x="26.192413"
         r="4.3911543"
         cy="280.00537"
         cx="-350.69556"
         id="path9799"
         style="fill:#ffffff;fill-rule:evenodd;stroke:none;stroke-width:0.21769145px;stroke-linecap:butt;stroke-linejoin:miter;stroke-opacity:1" />
      <circle
         r="4.3911543"
         cy="252.52678"
         cx="-317.68311"
         id="path9799-5"
         style="fill:none;fill-rule:evenodd;stroke:#ffffff;stroke-width:3;stroke-linecap:butt;stroke-linejoin:miter;stroke-miterlimit:4;stroke-dasharray:none;stroke-opacity:1" />
      <path
         d="m -393.89255,209.01915 c 0.22116,0.25276 -0.23159,0.42282 -0.42009,0.36758 -0.51083,-0.14969 -0.5499,-0.81937 -0.31507,-1.20777 0.42005,-0.69476 1.39188,-0.71464 1.99545,-0.26256 0.88577,0.66344 0.88486,1.97237 0.21005,2.78313 -0.89942,1.08062 -2.55573,1.05745 -3.57082,0.15754 -1.27739,-1.13245 -1.23127,-3.14045 -0.10502,-4.3585 1.36404,-1.47522 3.72594,-1.40581 5.14617,-0.0525 1.6737,1.59482 1.58081,4.31192 0,5.93386 -1.8251,1.87259 -4.89822,1.75609 -6.72153,-0.0525 -2.07177,-2.05505 -1.93159,-5.48474 0.10503,-7.50921 2.28478,-2.27115 6.07143,-2.10724 8.29689,0.15754 2.47067,2.51434 2.28301,6.65825 -0.21005,9.08457"
         sodipodi:t0="0"
         sodipodi:argument="-17.997589"
         sodipodi:radius="6.6985183"
         sodipodi:revolution="3"
         sodipodi:expansion="1"
         sodipodi:cy="209.01915"
         sodipodi:cx="-393.89255"
         id="path9820"
         style="fill:none;fill-rule:evenodd;stroke:#ffffff;stroke-width:1.10026383;stroke-linecap:round;stroke-linejoin:bevel;stroke-miterlimit:4;stroke-dasharray:none;stroke-opacity:1"
         sodipodi:type="spiral" />
      <path
         inkscape:transform-center-y="-0.1221694"
         inkscape:transform-center-x="0.35289558"
         d="m -317.59657,215.62095 -5.63577,1.34249 -3.01833,-4.94508 3.77033,-4.39872 5.34852,2.22652 z"
         inkscape:randomized="0"
         inkscape:rounded="0"
         inkscape:flatsided="true"
         sodipodi:arg2="1.3369448"
         sodipodi:arg1="0.70862627"
         sodipodi:r2="3.9870026"
         sodipodi:r1="4.9282069"
         sodipodi:cy="212.41371"
         sodipodi:cx="-321.33834"
         sodipodi:sides="5"
         id="path9852"
         style="opacity:1;vector-effect:none;fill:#eff0f5;fill-opacity:1;fill-rule:nonzero;stroke:#ffffff;stroke-width:1.39999998;stroke-linecap:round;stroke-linejoin:bevel;stroke-miterlimit:4;stroke-dasharray:none;stroke-dashoffset:0;stroke-opacity:1"
         sodipodi:type="star" />
      <path
         inkscape:transform-center-y="0.2787584"
         inkscape:transform-center-x="0.082591878"
         d="m -380.1376,262.92766 -3.37396,-2.83969 1.6581,-4.08634 4.39871,0.31419 1.06047,4.28052 z"
         inkscape:randomized="0"
         inkscape:rounded="0"
         inkscape:flatsided="true"
         sodipodi:arg2="2.2704223"
         sodipodi:arg1="1.6421038"
         sodipodi:r2="3.0348709"
         sodipodi:r1="3.7513068"
         sodipodi:cy="259.18587"
         sodipodi:cx="-379.87033"
         sodipodi:sides="5"
         id="path9854"
         style="opacity:1;vector-effect:none;fill:#eff0f5;fill-opacity:1;fill-rule:nonzero;stroke:#ffffff;stroke-width:1.39999998;stroke-linecap:round;stroke-linejoin:bevel;stroke-miterlimit:4;stroke-dasharray:none;stroke-dashoffset:0;stroke-opacity:1"
         sodipodi:type="star" />
      <circle
         inkscape:transform-center-y="40.844326"
         inkscape:transform-center-x="-23.252942"
         r="3.3220761"
         cy="223.10449"
         cx="-359.82516"
         id="path9799-9"
         style="fill:#ffffff;fill-rule:evenodd;stroke:none;stroke-width:0.16469191px;stroke-linecap:butt;stroke-linejoin:miter;stroke-opacity:1" />
      <circle
         r="3.4946749"
         cy="251.83595"
         cx="-430.78519"
         id="path9799-5-3"
         style="fill:none;fill-rule:evenodd;stroke:#ffffff;stroke-width:2.38753271;stroke-linecap:butt;stroke-linejoin:miter;stroke-miterlimit:4;stroke-dasharray:none;stroke-opacity:1" />
      <circle
         r="4.3911543"
         cy="366.33344"
         cx="-492.62778"
         id="path9799-8-1"
         style="fill:#ffffff;fill-rule:evenodd;stroke:none;stroke-width:0.21769145px;stroke-linecap:butt;stroke-linejoin:miter;stroke-opacity:1" />
      <circle
         r="4.3911543"
         cy="321.21503"
         cx="-461.75345"
         id="path9799-5-9-4"
         style="fill:none;fill-rule:evenodd;stroke:#ffffff;stroke-width:3;stroke-linecap:butt;stroke-linejoin:miter;stroke-miterlimit:4;stroke-dasharray:none;stroke-opacity:1" />
      <path
         d="m -526.203,358.95734 c 0.22116,0.25275 -0.2316,0.42282 -0.4201,0.36758 -0.51082,-0.14969 -0.5499,-0.81938 -0.31507,-1.20778 0.42005,-0.69475 1.39188,-0.71463 1.99545,-0.26255 0.88577,0.66344 0.88486,1.97237 0.21005,2.78313 -0.89941,1.08062 -2.55572,1.05745 -3.57081,0.15753 -1.27739,-1.13244 -1.23127,-3.14044 -0.10502,-4.35849 1.36403,-1.47522 3.72593,-1.40581 5.14617,-0.0525 1.67369,1.59482 1.5808,4.31192 0,5.93385 -1.82511,1.87259 -4.89822,1.7561 -6.72154,-0.0525 -2.07176,-2.05506 -1.93159,-5.48475 0.10503,-7.50921 2.28478,-2.27115 6.07144,-2.10725 8.29689,0.15754 2.47068,2.51434 2.28301,6.65825 -0.21005,9.08457"
         sodipodi:t0="0"
         sodipodi:argument="-17.997589"
         sodipodi:radius="6.6985183"
         sodipodi:revolution="3"
         sodipodi:expansion="1"
         sodipodi:cy="358.95734"
         sodipodi:cx="-526.203"
         id="path9820-3-1"
         style="fill:none;fill-rule:evenodd;stroke:#ffffff;stroke-width:1.10026383;stroke-linecap:round;stroke-linejoin:bevel;stroke-miterlimit:4;stroke-dasharray:none;stroke-opacity:1"
         sodipodi:type="spiral" />
      <path
         inkscape:transform-center-y="-0.1221694"
         inkscape:transform-center-x="0.35289558"
         d="m -561.62572,323.33056 -5.63576,1.34249 -3.01834,-4.94508 3.77033,-4.39872 5.34853,2.22652 z"
         inkscape:randomized="0"
         inkscape:rounded="0"
         inkscape:flatsided="true"
         sodipodi:arg2="1.3369448"
         sodipodi:arg1="0.70862627"
         sodipodi:r2="3.9870026"
         sodipodi:r1="4.9282069"
         sodipodi:cy="320.12332"
         sodipodi:cx="-565.36749"
         sodipodi:sides="5"
         id="path9852-2-6"
         style="opacity:1;vector-effect:none;fill:#eff0f5;fill-opacity:1;fill-rule:nonzero;stroke:#ffffff;stroke-width:1.39999998;stroke-linecap:round;stroke-linejoin:bevel;stroke-miterlimit:4;stroke-dasharray:none;stroke-dashoffset:0;stroke-opacity:1"
         sodipodi:type="star" />
      <path
         inkscape:transform-center-y="0.2787584"
         inkscape:transform-center-x="0.082591878"
         d="m -501.75732,340.1685 -3.37396,-2.83969 1.6581,-4.08634 4.39871,0.3142 1.06047,4.28052 z"
         inkscape:randomized="0"
         inkscape:rounded="0"
         inkscape:flatsided="true"
         sodipodi:arg2="2.2704223"
         sodipodi:arg1="1.6421038"
         sodipodi:r2="3.0348709"
         sodipodi:r1="3.7513068"
         sodipodi:cy="336.42673"
         sodipodi:cx="-501.49005"
         sodipodi:sides="5"
         id="path9854-6-6"
         style="opacity:1;vector-effect:none;fill:#eff0f5;fill-opacity:1;fill-rule:nonzero;stroke:#ffffff;stroke-width:1.39999998;stroke-linecap:round;stroke-linejoin:bevel;stroke-miterlimit:4;stroke-dasharray:none;stroke-dashoffset:0;stroke-opacity:1"
         sodipodi:type="star" />
      <circle
         inkscape:transform-center-y="40.844326"
         inkscape:transform-center-x="-23.252942"
         r="3.3220761"
         cy="304.08716"
         cx="-504.9646"
         id="path9799-9-6-2"
         style="fill:#ffffff;fill-rule:evenodd;stroke:none;stroke-width:0.16469191px;stroke-linecap:butt;stroke-linejoin:miter;stroke-opacity:1" />
      <circle
         r="3.4946749"
         cy="362.21826"
         cx="-563.11176"
         id="path9799-5-3-3-3"
         style="fill:none;fill-rule:evenodd;stroke:#ffffff;stroke-width:2.38753271;stroke-linecap:butt;stroke-linejoin:miter;stroke-miterlimit:4;stroke-dasharray:none;stroke-opacity:1" />
      <circle
         r="4.3911543"
         cy="302.72327"
         cx="-305.25977"
         id="path9799-8"
         style="fill:#ffffff;fill-rule:evenodd;stroke:none;stroke-width:0.21769145px;stroke-linecap:butt;stroke-linejoin:miter;stroke-opacity:1" />
      <circle
         r="4.3911543"
         cy="353.82193"
         cx="-382.89682"
         id="path9799-5-9"
         style="fill:none;fill-rule:evenodd;stroke:#ffffff;stroke-width:3;stroke-linecap:butt;stroke-linejoin:miter;stroke-miterlimit:4;stroke-dasharray:none;stroke-opacity:1" />
      <path
         d="m -319.0571,357.35373 c 0.22116,0.25275 -0.23159,0.42282 -0.42009,0.36758 -0.51083,-0.14969 -0.5499,-0.81937 -0.31508,-1.20777 0.42006,-0.69476 1.39189,-0.71464 1.99546,-0.26256 0.88577,0.66344 0.88485,1.97237 0.21005,2.78313 -0.89942,1.08062 -2.55573,1.05745 -3.57082,0.15754 -1.27739,-1.13245 -1.23127,-3.14045 -0.10502,-4.3585 1.36404,-1.47522 3.72594,-1.40581 5.14617,-0.0525 1.6737,1.59482 1.5808,4.31192 0,5.93386 -1.8251,1.87258 -4.89822,1.75609 -6.72153,-0.0525 -2.07177,-2.05505 -1.93159,-5.48474 0.10503,-7.50921 2.28478,-2.27115 6.07143,-2.10724 8.29689,0.15754 2.47067,2.51434 2.28301,6.65825 -0.21006,9.08457"
         sodipodi:t0="0"
         sodipodi:argument="-17.997589"
         sodipodi:radius="6.6985183"
         sodipodi:revolution="3"
         sodipodi:expansion="1"
         sodipodi:cy="357.35373"
         sodipodi:cx="-319.0571"
         id="path9820-3"
         style="fill:none;fill-rule:evenodd;stroke:#ffffff;stroke-width:1.10026383;stroke-linecap:round;stroke-linejoin:bevel;stroke-miterlimit:4;stroke-dasharray:none;stroke-opacity:1"
         sodipodi:type="spiral" />
      <path
         inkscape:transform-center-y="0.2787584"
         inkscape:transform-center-x="0.082591878"
         d="m -355.01428,336.42674 -3.37396,-2.83969 1.6581,-4.08634 4.39872,0.3142 1.06046,4.28052 z"
         inkscape:randomized="0"
         inkscape:rounded="0"
         inkscape:flatsided="true"
         sodipodi:arg2="2.2704223"
         sodipodi:arg1="1.6421038"
         sodipodi:r2="3.0348709"
         sodipodi:r1="3.7513068"
         sodipodi:cy="332.68497"
         sodipodi:cx="-354.74701"
         sodipodi:sides="5"
         id="path9854-6"
         style="opacity:1;vector-effect:none;fill:#eff0f5;fill-opacity:1;fill-rule:nonzero;stroke:#ffffff;stroke-width:1.39999998;stroke-linecap:round;stroke-linejoin:bevel;stroke-miterlimit:4;stroke-dasharray:none;stroke-dashoffset:0;stroke-opacity:1"
         sodipodi:type="star" />
      <circle
         inkscape:transform-center-y="40.844326"
         inkscape:transform-center-x="-23.252942"
         r="3.3220761"
         cy="320.65787"
         cx="-394.03568"
         id="path9799-9-6"
         style="fill:#ffffff;fill-rule:evenodd;stroke:none;stroke-width:0.16469191px;stroke-linecap:butt;stroke-linejoin:miter;stroke-opacity:1" />
      <circle
         r="3.4946749"
         cy="364.35641"
         cx="-429.71609"
         id="path9799-5-3-3"
         style="fill:none;fill-rule:evenodd;stroke:#ffffff;stroke-width:2.38753271;stroke-linecap:butt;stroke-linejoin:miter;stroke-miterlimit:4;stroke-dasharray:none;stroke-opacity:1" />
      <path
         d="m -416.62253,312.18518 c 0.22116,0.25276 -0.23159,0.42282 -0.42009,0.36758 -0.51083,-0.14968 -0.5499,-0.81937 -0.31508,-1.20777 0.42006,-0.69476 1.39189,-0.71464 1.99546,-0.26256 0.88577,0.66344 0.88485,1.97237 0.21005,2.78313 -0.89942,1.08062 -2.55573,1.05745 -3.57082,0.15754 -1.27739,-1.13245 -1.23127,-3.14045 -0.10502,-4.35849 1.36404,-1.47523 3.72594,-1.40582 5.14617,-0.0525 1.6737,1.59482 1.58081,4.31191 0,5.93385 -1.8251,1.87259 -4.89822,1.75609 -6.72153,-0.0525 -2.07177,-2.05505 -1.93159,-5.48474 0.10503,-7.50921 2.28478,-2.27114 6.07143,-2.10724 8.29689,0.15754 2.47067,2.51434 2.28301,6.65825 -0.21006,9.08457"
         sodipodi:t0="0"
         sodipodi:argument="-17.997589"
         sodipodi:radius="6.6985183"
         sodipodi:revolution="3"
         sodipodi:expansion="1"
         sodipodi:cy="312.18518"
         sodipodi:cx="-416.62253"
         id="path9820-3-5"
         style="fill:none;fill-rule:evenodd;stroke:#ffffff;stroke-width:1.10026383;stroke-linecap:round;stroke-linejoin:bevel;stroke-miterlimit:4;stroke-dasharray:none;stroke-opacity:1"
         sodipodi:type="spiral" />
      <path
         transform="matrix(1,0,0,1.0086455,3.4017334,-3.4341254)"
         inkscape:transform-center-y="-0.1221694"
         inkscape:transform-center-x="0.35289558"
         d="m -535.15398,276.82564 -5.63576,1.3425 -3.01834,-4.94508 3.77033,-4.39872 5.34853,2.22652 z"
         inkscape:randomized="0"
         inkscape:rounded="0"
         inkscape:flatsided="true"
         sodipodi:arg2="1.3369448"
         sodipodi:arg1="0.70862627"
         sodipodi:r2="3.9870026"
         sodipodi:r1="4.9282069"
         sodipodi:cy="273.61841"
         sodipodi:cx="-538.89575"
         sodipodi:sides="5"
         id="path9852-2"
         style="opacity:1;vector-effect:none;fill:#eff0f5;fill-opacity:1;fill-rule:nonzero;stroke:#ffffff;stroke-width:1.39999998;stroke-linecap:round;stroke-linejoin:bevel;stroke-miterlimit:4;stroke-dasharray:none;stroke-dashoffset:0;stroke-opacity:1"
         sodipodi:type="star" />
      <ellipse
         ry="4.4291182"
         rx="4.3911543"
         cy="236.39836"
         cx="-565.13055"
         id="path9799-8-19"
         style="fill:#ffffff;fill-rule:evenodd;stroke:none;stroke-width:0.21863045px;stroke-linecap:butt;stroke-linejoin:miter;stroke-opacity:1" />
      <ellipse
         ry="4.4291182"
         rx="4.3911543"
         cy="271.22479"
         cx="-472.24973"
         id="path9799-5-9-49"
         style="fill:none;fill-rule:evenodd;stroke:#ffffff;stroke-width:3.01294041;stroke-linecap:butt;stroke-linejoin:miter;stroke-miterlimit:4;stroke-dasharray:none;stroke-opacity:1" />
      <path
         transform="matrix(1,0,0,1.0086455,3.4017334,-3.4341254)"
         inkscape:transform-center-y="-0.1221694"
         inkscape:transform-center-x="0.35289558"
         d="m -499.61916,216.69001 -5.63576,1.34249 -3.01834,-4.94508 3.77034,-4.39871 5.34852,2.22651 z"
         inkscape:randomized="0"
         inkscape:rounded="0"
         inkscape:flatsided="true"
         sodipodi:arg2="1.3369448"
         sodipodi:arg1="0.70862627"
         sodipodi:r2="3.9870026"
         sodipodi:r1="4.9282069"
         sodipodi:cy="213.48277"
         sodipodi:cx="-503.36093"
         sodipodi:sides="5"
         id="path9852-2-9"
         style="opacity:1;vector-effect:none;fill:#eff0f5;fill-opacity:1;fill-rule:nonzero;stroke:#ffffff;stroke-width:1.39999998;stroke-linecap:round;stroke-linejoin:bevel;stroke-miterlimit:4;stroke-dasharray:none;stroke-dashoffset:0;stroke-opacity:1"
         sodipodi:type="star" />
      <path
         transform="matrix(1,0,0,1.0086455,3.4017334,-3.4341254)"
         inkscape:transform-center-y="0.2787584"
         inkscape:transform-center-x="0.082591878"
         d="m -462.73596,234.06253 -3.37396,-2.83969 1.6581,-4.08634 4.39872,0.31419 1.06046,4.28053 z"
         inkscape:randomized="0"
         inkscape:rounded="0"
         inkscape:flatsided="true"
         sodipodi:arg2="2.2704223"
         sodipodi:arg1="1.6421038"
         sodipodi:r2="3.0348709"
         sodipodi:r1="3.7513068"
         sodipodi:cy="230.32076"
         sodipodi:cx="-462.46869"
         sodipodi:sides="5"
         id="path9854-6-1"
         style="opacity:1;vector-effect:none;fill:#eff0f5;fill-opacity:1;fill-rule:nonzero;stroke:#ffffff;stroke-width:1.39999998;stroke-linecap:round;stroke-linejoin:bevel;stroke-miterlimit:4;stroke-dasharray:none;stroke-dashoffset:0;stroke-opacity:1"
         sodipodi:type="star" />
      <ellipse
         ry="3.3507972"
         rx="3.3220761"
         inkscape:transform-center-y="40.844326"
         inkscape:transform-center-x="-23.252942"
         cy="242.08731"
         cx="-517.59906"
         id="path9799-9-6-6"
         style="fill:#ffffff;fill-rule:evenodd;stroke:none;stroke-width:0.16540229px;stroke-linecap:butt;stroke-linejoin:miter;stroke-opacity:1" />
      <ellipse
         ry="3.524888"
         rx="3.4946749"
         cy="270.52802"
         cx="-571.4538"
         id="path9799-5-3-3-9"
         style="fill:none;fill-rule:evenodd;stroke:#ffffff;stroke-width:2.3978312;stroke-linecap:butt;stroke-linejoin:miter;stroke-miterlimit:4;stroke-dasharray:none;stroke-opacity:1" />
      <path
         transform="matrix(1,0,0,1.0086455,3.4017334,-3.4341254)"
         d="m -547.46881,219.48555 c 0.22116,0.25276 -0.2316,0.42282 -0.4201,0.36758 -0.51082,-0.14969 -0.5499,-0.81937 -0.31507,-1.20777 0.42005,-0.69476 1.39188,-0.71464 1.99546,-0.26256 0.88576,0.66344 0.88485,1.97237 0.21004,2.78313 -0.89941,1.08062 -2.55572,1.05745 -3.57081,0.15754 -1.27739,-1.13245 -1.23127,-3.14045 -0.10502,-4.3585 1.36404,-1.47522 3.72594,-1.40581 5.14617,-0.0525 1.6737,1.59481 1.5808,4.31191 0,5.93385 -1.8251,1.87259 -4.89822,1.75609 -6.72153,-0.0525 -2.07177,-2.05505 -1.9316,-5.48474 0.10502,-7.50921 2.28478,-2.27115 6.07144,-2.10724 8.29689,0.15754 2.47068,2.51434 2.28302,6.65825 -0.21005,9.08457"
         sodipodi:t0="0"
         sodipodi:argument="-17.997589"
         sodipodi:radius="6.6985183"
         sodipodi:revolution="3"
         sodipodi:expansion="1"
         sodipodi:cy="219.48555"
         sodipodi:cx="-547.46881"
         id="path9820-3-5-5"
         style="fill:none;fill-rule:evenodd;stroke:#ffffff;stroke-width:1.10026383;stroke-linecap:round;stroke-linejoin:bevel;stroke-miterlimit:4;stroke-dasharray:none;stroke-opacity:1"
         sodipodi:type="spiral" />
    </g>
  </g>
</svg>
