<?xml version="1.0" encoding="UTF-8" standalone="no"?>
<!-- Created with Inkscape (http://www.inkscape.org/) -->

<svg
   xmlns:dc="http://purl.org/dc/elements/1.1/"
   xmlns:cc="http://creativecommons.org/ns#"
   xmlns:rdf="http://www.w3.org/1999/02/22-rdf-syntax-ns#"
   xmlns:svg="http://www.w3.org/2000/svg"
   xmlns="http://www.w3.org/2000/svg"
   xmlns:sodipodi="http://sodipodi.sourceforge.net/DTD/sodipodi-0.dtd"
   xmlns:inkscape="http://www.inkscape.org/namespaces/inkscape"
   width="1545.2419mm"
   height="923.83917mm"
   viewBox="0 0 1545.242 923.83918"
   version="1.1"
   id="svg8"
   inkscape:version="0.92.0 r15299"
   sodipodi:docname="envelope.svg">
  <defs
     id="defs2">
    <inkscape:path-effect
       effect="spiro"
       id="path-effect4510"
       is_visible="true" />
    <inkscape:path-effect
       effect="spiro"
       id="path-effect4498"
       is_visible="true" />
  </defs>
  <sodipodi:namedview
     id="base"
     pagecolor="#ffffff"
     bordercolor="#666666"
     borderopacity="1.0"
     inkscape:pageopacity="0.0"
     inkscape:pageshadow="2"
     inkscape:zoom="0.061871843"
     inkscape:cx="4486.7595"
     inkscape:cy="2358.9804"
     inkscape:document-units="mm"
     inkscape:current-layer="layer1"
     showgrid="false"
     inkscape:snap-smooth-nodes="false"
     inkscape:snap-others="false"
     inkscape:object-nodes="false"
     fit-margin-top="5"
     fit-margin-left="5"
     fit-margin-right="5"
     fit-margin-bottom="5"
     inkscape:window-width="1366"
     inkscape:window-height="693"
     inkscape:window-x="-9"
     inkscape:window-y="-9"
     inkscape:window-maximized="1" />
  <metadata
     id="metadata5">
    <rdf:RDF>
      <cc:Work
         rdf:about="">
        <dc:format>image/svg+xml</dc:format>
        <dc:type
           rdf:resource="http://purl.org/dc/dcmitype/StillImage" />
        <dc:title></dc:title>
      </cc:Work>
    </rdf:RDF>
  </metadata>
  <g
     inkscape:label="Layer 1"
     inkscape:groupmode="layer"
     id="layer1"
     transform="translate(583.38707,380.01919)">
    <g
       id="g4594"
       style="opacity:0.2;fill:#ffffff;fill-opacity:1;stroke:none;stroke-opacity:1"
       transform="rotate(-22.326694,199.94743,137.49765)">
      <path
         sodipodi:nodetypes="ccccccccccccccccccccscc"
         inkscape:connector-curvature="0"
         id="path4524"
         d="m -164.55468,-48.22627 c -1.86581,-15.62089 55.65349,-26.988659 112.821525,-27.476419 62.538154,2.348755 85.694942,-4.069738 121.116665,-2.120037 99.97165,-1.701826 194.44862,2.060146 269.01542,0.624964 85.64763,0.808976 117.30907,-15.2342 204.10223,10.764653 27.91688,8.994327 26.86193,56.8835476 29.89087,69.1016587 7.28468,80.1611413 6.93462,248.3159703 8.04514,352.5690103 0.28782,22.64998 10.99172,65.0956 -37.29783,86.6274 -71.9265,13.4223 -177.63088,5.07519 -230.85446,6.65332 -99.50148,-0.83411 -434.89598,23.54243 -459.42675,-25.79894 -18.80942,-41.71911 -7.05063,-86.16784 -6.91407,-225.49186 -2.65315,-87.00565 -3.63534,-149.493672 0.29888,-244.751502 60.539229,-13.551985 20.83989,61.983154 27.76637,236.404082 -0.0674,158.99952 -7.73165,152.31715 -1.14579,209.68322 6.34549,35.17268 140.470011,26.61941 192.532373,26.5162 145.444787,3.11062 341.115687,-2.73361 376.301487,-2.2712 17.84392,-0.29736 113.42884,11.63984 115.06981,-51.17168 -4.36165,-154.93217 1.83576,-132.9448 -2.69789,-221.19122 -9.71428,-127.22579 7.00227,-191.905217 -40.99199,-195.29813 -70.21621,-14.425173 -98.02347,-2.109403 -165.00869,-6.907102 -28.17183,0.719859 -142.20245,4.662399 -247.83721,3.262925 -179.600274,-2.379387 -213.4352,15.392364 -213.4352,15.392364 0,0 -62.34383,-10.305593 -51.35089,-15.121707 z"
         style="opacity:1;vector-effect:none;fill:#ffffff;fill-opacity:1;fill-rule:nonzero;stroke:none;stroke-width:5;stroke-linecap:butt;stroke-linejoin:miter;stroke-miterlimit:4;stroke-dasharray:none;stroke-dashoffset:0;stroke-opacity:1" />
      <path
         style="opacity:1;vector-effect:none;fill:#ffffff;fill-opacity:1;fill-rule:nonzero;stroke:none;stroke-width:5;stroke-linecap:butt;stroke-linejoin:miter;stroke-miterlimit:4;stroke-dasharray:none;stroke-dashoffset:0;stroke-opacity:1"
         d="m -209.62367,-72.905221 c -40.58722,-21.31894 -74.60038,-36.220629 -103.96921,-50.835849 -24.98896,-14.52932 -34.30762,-22.97709 -55.56755,-21.18812 -40.41515,13.0848 -76.56086,56.444996 -98.26314,80.681489 -18.85193,16.17167 -34.84625,43.034787 -50.82951,61.8189202 -15.61822,23.4245058 -29.83898,47.8115728 -47.58761,69.8003468 -11.4958,20.20101 39.72741,-8.916344 58.72382,-17.729144 19.86317,-10.85669 27.02319,-13.78614 60.80256,-32.380758 44.16779,-24.8087598 61.83222,-20.2348238 61.83222,-20.2348238 0,0 11.2022,6.35936 -5.87874,27.9501518 -15.38083,18.60654 -17.46393,29.71416 -35.99185,44.966654 -4.6251,5.037 -12.94715,19.15965 -3.63359,20.88311 21.30054,-2.53163 27.69931,-4.09597 48.78511,-7.00238 22.51383,-7.11948 65.091,-21.2556 81.81305,-30.160124 52.88706,-21.62208 51.84906,-9.20618 51.84906,-9.20618 5.54489,13.77124 -16.33742,27.086434 -21.11675,35.982894 -9.34238,15.23067 -41.26941,44.476544 -21.21527,50.339674 37.0957,5.92759 68.18112,2.3752 104.61299,0.42084 18.79721,-0.352 63.93676,-12.05624 51.80633,19.89286 -36.72732,9.37754 -40.38664,5.68313 -67.66411,8.10065 -68.95835,3.80982 -99.64344,-0.58514 -120.0319,-11.51432 -25.94239,-3.6064 -6.05744,-37.39237 3.8589,-52.449034 50.70355,-70.106504 55.52091,-10.01576 -38.52336,14.310864 -33.74509,8.46027 -69.63614,14.08936 -115.78762,10.40177 -34.80165,-4.69266 9.14916,-55.705274 9.14916,-55.705274 59.4948,-64.59168979 65.25673,-50.765172 -15.99533,4.64098 -31.30334,18.86663 -66.2728,30.34229 -99.77014,44.587564 -83.33356,23.47374 -43.74762,-20.222284 -23.98918,-50.141824 14.2497,-31.213934 31.22598,-47.821012 47.62836,-75.309903 10.53129,-13.651452 20.74981,-25.706465 30.41914,-40.243094 39.073,-48.419379 82.72134,-85.338039 82.72134,-85.338039 33.13893,-27.3091 52.00053,-36.96385 65.53211,-39.29151 26.49314,-1.67066 41.93873,1.31366 71.88761,19.62368 30.64954,16.70014 30.98146,16.89821 49.79934,24.75037 21.23905,10.95679 35.89003,18.06816 63.60508,33.017415 36.45683,20.194854 59.17322,34.03045 61.11172,42.6055 2.31436,36.384753 0.32929,46.509206 -33.2005,23.176723 -9.81848,-10.379479 -21.13254,-28.587369 -46.92254,-39.222079 z"
         id="path4526"
         inkscape:connector-curvature="0"
         sodipodi:nodetypes="cccccccccccccccccccccccccccccccccccccc" />
      <path
         sodipodi:nodetypes="ccccccccccccc"
         inkscape:connector-curvature="0"
         id="path4532"
         d="m -119.85607,-54.980258 c 95.187178,77.517902 158.874703,128.767697 248.74316,207.780788 30.73549,20.81204 80.11293,44.76473 131.88152,5.14955 C 303.51876,121.76695 375.79722,69.589516 422.19436,30.091406 482.69229,-11.638216 527.7204,-70.372979 549.44206,-53.208257 547.21222,-12.814044 477.5345,20.764064 426.0458,68.986435 386.50011,97.959309 327.88266,147.93681 278.49696,183.37302 227.07445,218.36889 190.88911,212.75882 162.84677,206.72642 126.02144,195.3746 123.12752,191.79573 75.291685,154.67509 36.143287,115.61388 41.245362,128.0474 -17.985263,75.254269 -76.767391,18.332428 -168.3933,-25.370272 -143.89723,-51.288485 l 15.58898,-5.9869 z"
         style="opacity:1;vector-effect:none;fill:#ffffff;fill-opacity:1;fill-rule:nonzero;stroke:none;stroke-width:5;stroke-linecap:butt;stroke-linejoin:miter;stroke-miterlimit:4;stroke-dasharray:none;stroke-dashoffset:0;stroke-opacity:1" />
      <path
         sodipodi:nodetypes="cccccccccc"
         inkscape:connector-curvature="0"
         id="path4536"
         d="m 276.03049,172.66424 c 19.6033,11.53929 48.64428,31.91946 87.5639,64.78968 54.78745,44.02949 75.06052,54.6649 128.76943,92.69286 24.34389,22.05094 56.69379,41.68183 68.48725,70.36569 4.5334,16.13642 -19.43437,27.50261 -29.09186,13.8589 -9.04357,-18.16908 -19.11059,-28.96633 -79.1175,-75.78384 -74.15614,-50.1449 -77.7073,-51.2508 -140.84702,-100.20923 -10.90509,-9.11063 -48.76016,-32.25757 -58.75959,-42.38829 -10.61209,-12.97375 6.80415,-32.98173 21.11464,-24.34295 z"
         style="opacity:1;vector-effect:none;fill:#ffffff;fill-opacity:1;fill-rule:nonzero;stroke:none;stroke-width:5;stroke-linecap:butt;stroke-linejoin:miter;stroke-miterlimit:4;stroke-dasharray:none;stroke-dashoffset:0;stroke-opacity:1" />
      <path
         style="opacity:1;vector-effect:none;fill:#ffffff;fill-opacity:1;fill-rule:nonzero;stroke:none;stroke-width:5;stroke-linecap:butt;stroke-linejoin:miter;stroke-miterlimit:4;stroke-dasharray:none;stroke-dashoffset:0;stroke-opacity:1"
         d="m 695.34485,-121.52044 c 24.98897,-14.52932 52.45049,-26.75685 73.71043,-24.96788 24.49495,3.52762 57.67307,28.45767 67.60017,37.79863 18.36609,20.077788 20.12593,22.488619 38.22249,42.882858 24.1436,28.266909 27.28673,43.034788 43.26999,61.8189185 15.61821,23.4245095 29.83897,47.8115695 47.5876,69.8003445 11.4958,20.20101 -39.7274,-8.916345 -58.72381,-17.729145 -19.86317,-10.85669 -27.02319,-13.78613 -60.80256,-32.38075 -44.16779,-24.8087595 -61.83222,-20.2348295 -61.83222,-20.2348295 0,0 -11.2022,6.35936 5.87874,27.9501595 15.38083,18.60654 17.46393,29.71416 35.99185,44.966645 4.6251,5.037 12.94715,19.15965 3.63359,20.88312 -21.30054,-2.53164 -27.69931,-4.09598 -48.78511,-7.00239 -22.51382,-7.11948 -65.091,-21.2556 -81.81306,-30.160115 -52.88706,-21.62209 -51.84905,-9.20618 -51.84905,-9.20618 -5.5449,13.77124 16.33742,27.086425 21.11674,35.982885 9.34239,15.23066 41.26942,44.476539 21.21527,50.339679 -37.09569,5.92759 -68.18111,2.37519 -104.61299,0.42084 -18.79722,-0.352 -28.72205,-7.54278 -16.59155,24.40632 7.24514,1.25104 12.73139,3.43752 32.44932,3.58718 68.95836,3.80982 99.64346,-0.58512 120.03191,-11.51432 25.9424,-3.6064 6.05745,-37.39237 -3.85889,-52.449039 -50.70356,-70.106485 -55.52091,-10.01575 38.52336,14.310889 33.74509,8.46026 69.63614,14.08935 115.78762,10.40175 34.80165,-4.69265 -9.14916,-55.705269 -9.14916,-55.705269 -59.49481,-64.5916845 -65.25673,-50.765165 15.99533,4.64098 31.30334,18.86664 66.27279,30.34228 99.77013,44.587549 83.33361,23.47376 43.74761,-20.222259 23.98921,-50.141809 C 987.85048,30.552656 970.87419,13.945576 954.47181,-13.543314 943.94052,-27.194774 933.722,-39.249782 924.05268,-53.786412 883.57459,-106.38425 825.52257,-168.06962 775.79922,-178.41596 c -26.49314,-1.67066 -41.93872,1.31366 -71.8876,19.62368 -30.64954,16.70014 -30.98146,16.89821 -49.79934,24.75037 -21.23906,10.95679 -35.89004,18.06816 -63.60509,33.01742 -36.45684,20.194848 -56.14942,35.542349 -58.08792,44.117399 -2.31432,36.384758 16.11264,29.500273 36.98027,10.325533 38.86786,-36.058016 76.05334,-50.229812 125.94531,-74.938882 z"
         id="path4526-0"
         inkscape:connector-curvature="0"
         sodipodi:nodetypes="ccccccccccccccccccccccccccccccccccccc" />
      <path
         sodipodi:nodetypes="cccccccccc"
         inkscape:connector-curvature="0"
         id="path4536-6"
         d="m 135.92416,171.72061 c -19.6033,11.53929 -48.64428,31.91946 -87.5639,64.78969 -54.7874499,44.02949 -75.06052,54.6649 -128.76943,92.69286 -24.34389,22.05094 -56.69378,41.68183 -68.48727,70.36569 -4.5334,16.13642 19.43439,27.50261 29.09187,13.8589 9.04359,-18.16908 19.1106,-28.96633 79.11751,-75.78384 74.15614,-50.1449 77.7073,-51.2508 140.84702,-100.20924 10.90509,-9.11063 48.76016,-32.25757 58.75959,-42.38829 10.61209,-12.97375 -6.80415,-32.98173 -21.11464,-24.34295 z"
         style="opacity:1;vector-effect:none;fill:#ffffff;fill-opacity:1;fill-rule:nonzero;stroke:none;stroke-width:5;stroke-linecap:butt;stroke-linejoin:miter;stroke-miterlimit:4;stroke-dasharray:none;stroke-dashoffset:0;stroke-opacity:1" />
    </g>
  </g>
</svg>
