WARNING: SVG input document uses 3 flow text elements, which won't render on browsers!
<?xml version="1.0" encoding="UTF-8"?>
<!-- Created with Inkscape (http://www.inkscape.org/) -->
<svg width="46.667mm" height="51.153mm" version="1.1" viewBox="0 0 46.667394 51.152811" xmlns="http://www.w3.org/2000/svg" xmlns:cc="http://creativecommons.org/ns#" xmlns:dc="http://purl.org/dc/elements/1.1/" xmlns:rdf="http://www.w3.org/1999/02/22-rdf-syntax-ns#" xmlns:xlink="http://www.w3.org/1999/xlink">
 <metadata>
  <rdf:RDF>
   <cc:Work rdf:about="">
    <dc:format>image/svg+xml</dc:format>
    <dc:type rdf:resource="http://purl.org/dc/dcmitype/StillImage"/>
    <dc:title/>
   </cc:Work>
  </rdf:RDF>
 </metadata>
 <g transform="translate(-706.26 -192.93)">
  <g fill="#fff">
   <path d="m406.82 221.73c-0.81915-0.0317-1.638 0.12181-2.4564-5e-3 -0.0536 0.042-0.10583 0.0839-0.15839 0.12665-0.41769 0.23178-0.89853 0.0943-1.3377 0.32315 0.56374 0 1.1275 2.8e-4 1.6909 0 0.58773-4.3e-4 1.1751-3e-3 1.7628-3e-3 0.31468 0 0.6156 0.0371 0.80539 0.33804 0.63959 0.72457 0.87489 1.5984 0.96132 2.5372 0.0794 0.86597 0.1464 1.7384 0.30692 2.5918 0.15663 0.8358 0.17603 1.6859 0.2159 2.5177 0.0681 1.4352 0.21131 2.8631 0.37959 4.2814 0.15875 1.3444 0.19367 2.6997 0.43991 4.0393 0.23495 1.2788 0.32103 2.5868 0.43286 3.8858 0.0656 0.76454 0.2032 1.5187 0.25153 2.2871 0.0346 0.54281-0.0127 1.0717-0.0494 1.6043-0.0416 0.61391-0.38735 1.0468-0.93698 1.3046-0.64593 0.30416-1.2933 0.61104-2.0204 0.6816-0.0974 9e-3 -0.1905 0.0663-0.28539 0.10128 0.0864 0.22613 0.2547 0.27203 0.48013 0.24899 0.32102-0.0328 0.64523-0.0401 0.96767-0.0579 0.54433-0.0154 0.98284-0.36078 1.493-0.48175 0.71191-0.6386 1.0336-1.4514 1.0036-2.3923-0.0526-1.6637-0.28857-3.3118-0.4826-4.9629-0.15522-1.3184-0.37429-2.6307-0.48577-3.9522-0.0624-0.73794-0.0935-1.4792-0.16016-2.2203-0.11995-1.3247-0.35737-2.6381-0.37253-3.9741-0.01-0.76758-0.0402-1.5423-0.15558-2.2987-0.13899-0.90907-0.34325-1.8037-0.32667-2.735 0.0166-0.93391-0.24165-1.8204-0.5909-2.6808-0.25012-0.32138-0.49989-0.64272-0.74966-0.96411-0.20884-0.018-0.42474 0-0.60713-0.132-6e-3 -3e-3 -0.0109-5e-3 -0.0159-9e-3"/>
   <path d="m308.17 233.11c-0.27464-0.22751-0.17004-0.49416-0.19802-0.72705-0.27492 0.38378-0.1808 0.83991-0.19886 1.2548-0.0661 1.5818-0.24585 3.1563-0.2782 4.741-0.023 1.15 0.0871 2.293 0.0577 3.4417-0.0533 2.1139 0.18867 4.2362-0.14633 6.3448-0.0112 0.0702 0.0276 0.14883 0.0435 0.22299 0.19513-0.10873 0.45022-0.34082 0.3984 0.15307-0.0518 0.48577-9e-3 0.95638 0.14058 1.4193 0.031-0.40997 0.0624-0.81926 0.0941-1.2291-0.0248-0.31087-0.0162-0.62025 0.0484-0.92604 0.0347-0.78962 0.0858-1.578 0.10209-2.3676 0.0401-1.9331-0.11271-3.8675-0.016-5.8007 5e-3 -0.10114 0.0212-0.20242 0.0317-0.30331 0.0194-0.77361-0.24254-1.5427-0.0331-2.3185-0.0114-0.32026 0.0109-0.63459 0.12362-0.93335 0.0149-0.0526 0.0329-0.10404 0.0617-0.15462-0.0175-0.0469-0.0128-0.0903 0.0152-0.13146 0.05-1.0778 0.10001-2.1544 0.15032-3.2308-0.21509 0.0977-0.24776 0.35208-0.39687 0.54501"/>
   <path d="m306.23 238.04c-0.0494-6e-3 -0.1221 1e-3 -0.13106-0.0199-0.0911-0.20242-0.14333-0.40389 0.0803-0.59048 0.16055 0.23276 0.15642 0.41949 0.0507 0.61034zm-0.4137 6.7885c0.0606 0.0261 0.1185 0.086 0.14936 0.14609 0.0447 0.0846-0.0153 0.12664-0.0967 0.1403-0.11066-8e-3 -0.18147-0.0645-0.18355-0.1771-2e-3 -0.0803 0.0462-0.14594 0.13092-0.10929zm-18.835-21.076c0.6121 0.035 1.2288 0.0342 1.8352 0.11507 1.1109 0.14676 2.1852-0.1888 3.2813-0.19512 1.7369-0.0102 3.4738 0.0194 5.2102-0.0172 0.81305-0.0174 1.6288-0.0262 2.4418-0.12527 1.3244-0.16051 2.6478-0.16824 3.9722 0.0631 0.50835 0.0896 0.81082 0.37853 1.0815 0.76616 0.84486 1.2101 1.0066 2.5599 0.71522 3.9529-0.20313 0.96947-0.0101 1.8758 0.22348 2.7831 0.20426 0.79513 0.29824 1.5868 0.36036 2.4081 0.12679 1.6784-0.30067 3.3107-0.25424 4.9769 0.0407 1.457-4e-3 2.9156-0.0634 4.3744-0.0409 1.0011-0.35373 1.9656-0.3369 2.9704 3e-3 0.15282-3e-3 0.3066-5e-3 0.46041 0.12513-0.17187 0.14168-0.37924 0.1881-0.57686 0.0334-0.14002 0.12087-0.2413 0.27411-0.18274 0.14937 0.0579 0.15212 0.20673 0.0974 0.32385-0.28653 0.60441-0.17007 1.2426-0.17311 1.8708 0.31186-1.2146 0.44154-2.4529 0.47322-3.7042-0.0904 0.0805-0.13392 0.23495-0.27725 0.22793-0.11836-6e-3 -0.15088-0.12884-0.14676-0.22571 0.0147-0.39977 0.0324-0.80024 0.0686-1.1992 0.0225-0.24448 0.21512-0.31613 0.42898-0.34149 0.0117-0.20465 0.0233-0.41025 0.0351-0.61489-0.10361 0.0692-0.20683 0.13726-0.34325 0.2275-0.15462-0.14248-0.13959-0.32092-0.0353-0.45183 0.13297-0.16482 0.26184 9e-3 0.38668 0.0687 0.0322-0.48299 0.0856-0.96654 0.0915-1.4496 6e-3 -0.45089 0.11864-0.9095-0.0653-1.3512-1e-3 7.1e-4 -2e-3 1e-3 -3e-3 1e-3 -0.0416 0.22889-0.0544 0.46521-0.16107 0.67483-1e-3 0.0117 2.8e-4 0.024-2e-3 0.0349-5e-3 7e-3 -9e-3 0.0131-0.0145 0.0194-0.0131 0.018-0.0254 0.0364-0.0388 0.0536 0.0344 0.35842 0.20916 0.69825-0.12072 1.137-0.0499-0.44514-0.0478-0.76553 0.0901-1.0964-0.01 0.0152-0.0223 0.0285-0.0314 0.0441 9e-3 -0.0162 0.0223-0.0307 0.0331-0.0466 7e-3 -0.0181 0.0115-0.036 0.0199-0.0547-0.0414-0.2836-0.16842-0.59228 0.20792-0.7571 7e-3 -5e-3 0.0115-0.0102 0.019-0.0151l3e-3 4e-3c0.15501-1.4993 0.31707-2.9993 0.34311-4.5064 0.0175-1.0156-0.0374-2.0319-0.30882-3.0282-0.31666-1.1631-0.57105-2.3399-0.13547-3.5373 0.0261-0.0702 0.0239-0.15173 0.0316-0.22821 0.16383-1.5434-0.47833-2.8381-1.2741-4.0782-0.10407-0.16189-0.22765-0.37811-0.44112-0.41049-0.60688-0.0925-1.1752-0.43576-1.7932-0.37293-0.75985 0.0758-1.524 9e-3 -2.2819 0.15244-2.0202 0.38089-4.0688 0.20877-6.1054 0.2479-1.1716 0.0226-2.3456-0.0868-3.5162 0.0565-0.22863 0.0282-0.46344 0.0984-0.68559 0.0694-1.3495-0.17279-2.6972 7e-3 -4.0455-2e-3 0.2008 0.23633 0.51266 0.30053 0.74775 0.48465"/>
   <path d="m434.8 237.97c0.10548-0.23139-0.16404-0.72528 0.46249-0.64206 0.37782 0.0502 0.1337-0.24941 0.12418-0.40594-0.47096-0.49321-0.46249-0.70281 0.066-1.0432 0.18767-0.12099 0.4011-0.20395 0.63394-0.31971 0.2092 0.26679 0.11148 0.55287 0.12206 0.8147 0.01 0.24791 0.14993 0.38379 0.36336 0.42003 0.24377 0.042 0.37042-0.10859 0.40605-0.34562 0.0187-0.12498 0.0557-0.24735 0.0804-0.3722 0.0473-0.24378-0.20496-0.5927 0.0339-0.71576 0.3944-0.20395 0.80257-0.42719 1.27-0.47059 0.23107-0.0223 0.34819 0.0652 0.33408 0.28635-0.019 0.31502 0.10371 0.59765 0.17392 0.89187 0.037 0.15696 0.12806 0.27629 0.30833 0.28925h7e-4c0.28787 0.20326 0.54187 0.40362 0.94827 0.17143 0.21413-0.12127 0.5401-0.0903 0.80539 0.0635 0.32914 0.19017 0.35419 0.30593 0.1203 0.77047 6e-3 0.12816-0.0138 0.2632 0.0215 0.38213 0.52387 1.7917-0.38488 3.031-1.6824 4.0061-1.0802 0.8111-2.6797 0.54225-3.1507-0.61945-0.18133-0.44841-0.39158-0.88801-0.54927-1.3491-0.13935-0.4064-0.22825-0.8442-0.50906-1.1927-0.38947-0.0448-0.54399-0.26677-0.38347-0.61954zm4.795-2.2965c0.0455-0.82861 0.13406-0.88718 0.96203-0.66669 0.36089 0.0969 0.4505 0.33045 0.19438 0.59641-0.29916 0.31158-0.65828 0.54157-1.0827 0.6153-0.15628-0.1961-0.0825-0.37607-0.0737-0.54502zm3.4858 20.395c0.27764-0.38308 0.28258-0.37881 0.74366-0.0564 0.22436 7e-4 0.35524 0.13575 0.45649 0.3146 0.62971 0.46179 1.41 0.56942 2.1022 0.89119 0.84067 0.39053 1.7247 0.6882 2.6557 1.0505-2.1368 2.3595-3.8552 4.8744-3.3715 8.2258-0.28152 0.12456-0.40429-0.0174-0.53869-0.13367-0.6029-0.52035-1.106-1.1321-1.5946-1.7551-0.26035-0.33129-0.30656-0.75572-0.43286-1.1374-0.33725-1.0163-0.71473-2.0348-0.89535-3.0836-0.26246-1.5219-0.0699-3.0109 0.87489-4.3159zm1.4478-1.5165c0.81703-0.69924 1.6873-1.3519 2.6652-1.7734 0.80574-0.34752 1.6245-0.72718 2.5195-0.85093 0.32526-0.0441 0.64205-0.1524 0.96273-0.23248 0.36971-0.31613 0.73519-0.38915 1.0989 0.0106 0.0723 0.0789 0.1711 0.0903 0.2727 0.0832 0.0885-0.12139 0.14711-0.28469 0.33126-0.28649 1.1391-0.01 2.2708 0.0247 3.2068 0.81001 0.41557 0.34893 0.75035 0.74359 0.90275 1.3003 0.14394 0.52419 0.0462 0.95991-0.26176 1.367-0.32455 0.42856-0.67521 0.83506-1.0044 1.26-0.3249 0.42059-0.7306 0.60015-1.2682 0.54653-0.85337-0.0854-1.6782 0.0606-2.4687 0.39398 0.14323 0.211 0.35313 0.29711 0.5976 0.31792 0.19192-0.12072 0.39723-0.17459 0.62336-0.12209 0.0476-4e-3 0.0953-0.0131 0.14253-0.0116 0.11253 3e-3 0.29668-0.0409 0.30374 0.081 8e-3 0.15102-0.18698 0.0823-0.28928 0.12001-0.38488 0.21485-0.80469 0.21622-1.227 0.19858-0.51682-0.10086-0.51541 0.25192-0.52352 0.59726 0.99201-0.0571 1.9738-0.1662 2.9309-0.45752 0.17921-0.0543 0.31927-0.14605 0.46743-0.24448 0.60361-0.40252 1.1892-0.28758 1.803 0.017 0.83644 0.41547 1.3896 1.1094 1.8912 1.8474 0.47872 0.70556 0.45121 0.73382-0.13088 1.3518-0.0794 0.19307-0.11853 0.37472 0.133 0.476 0.17462-0.0886 0.27834-0.30526 0.54963-0.2879 0.0931 0.21308 0.18768 0.4403 0.28822 0.66576 0.52987 1.185 0.30974 2.3254-0.2032 3.4491-0.21026 0.4589-0.40993 0.92386-0.64065 1.374-0.36195 0.70626-0.74154 0.82864-1.33 0.41949-0.32526 0.12195-0.11324 0.29764-0.0452 0.45818 0.43216 0.37677 0.43427 0.37896 0.0864 0.70983-0.0889 0.0846-0.19439 0.15339-0.2914 0.2293-0.17604 0.19431-0.40922 0.30445-0.63465 0.42651-0.9398 0.62371-1.9981 0.90276-3.0977 1.0488-0.27975 0.037-0.56374 0.0198-0.83679-0.0759-1.8087-0.63323-3.6198-1.2651-5.3273-2.1484-0.24236-0.12485-0.50412-0.29351-0.4886-0.63253 0.0409-0.89571-0.0818-1.7886-0.0131-2.6892 0.0836-1.0968 0.73377-1.9446 1.1366-2.9009 0.2995-0.70802 0.81879-1.2746 1.2192-1.9181 0.29068-0.46701 0.8001-0.7112 1.2591-0.97991 0.31327-0.18384 0.52846-0.0296 0.61489 0.36932 0.0215 0.10086 0.0251 0.20076 0.11148 0.27227 0.2413-0.52102 0.44626-1.041 0.12206-1.6104-0.0392-0.0674 0.0194-0.19085 0.0332-0.28857 9e-3 -0.0427 2e-3 -0.0839-0.0183-0.12277-0.14958 0.0427-0.29986 0.0864-0.44944 0.12979-0.0413 0.28582-0.1651 0.46856-0.49389 0.45724-0.3108-0.0102-0.60396-0.0783-0.89359-0.18246-1.3127-0.46905-2.6377-0.9066-3.894-1.5201-0.11465-0.0557-0.23424-0.10406-0.3429-0.16855-0.90064-0.54155-0.90558-0.59408-0.0991-1.2838zm15.351 5.5192c0.56586-0.35098 1.1539-0.64907 1.7836-0.86677 0.51188-0.17572 0.98883-0.14291 1.4679 0.1397 0.90699 0.53484 1.5783 1.2555 2.0443 2.2112 0.3482 0.7137 0.75812 1.3903 0.78846 2.2094 0.0194 0.53552-7e-3 1.0577-0.3309 1.5282-0.1584 0.22973-0.27199 0.49569-0.37042 0.75823-0.54151 1.4466-1.7487 1.9738-3.1207 2.268-0.44239 0.0945-0.84879-0.14679-1.2809-0.19692-0.73554-0.0839-1.4676-0.21692-2.1904-0.37885-0.46213-0.10403-0.46496-0.15448-0.25964-0.55739 0.28822-0.56652 0.58173-1.131 0.89253-1.6849 0.42227-0.75241 0.60254-1.351 0.61912-2.2599 0.0526-0.5147-0.0998-1.0805-0.31679-1.628-0.0656-0.16619-0.13723-0.32247-0.17568-0.50091-0.14429-0.66714-0.13829-0.67525 0.44943-1.0411zm-22.139-17.262c0.47907 0.0187 0.61736 0.25643 0.68509 0.64491 0.33408 1.9388 0.93486 3.8156 1.3663 5.7333 0.45261 2.014 1.4496 3.8213 2.6409 5.4948 0.33972 0.47709 0.31291 0.79597 0.0324 1.2245-0.91722 1.4016-1.1384 2.9595-0.86007 4.5689 0.15593 0.89916 0.54998 1.7544 0.74824 2.6493 0.27164 1.2238 0.98178 2.1759 1.7572 3.0978 0.31291 0.37222 0.74189 0.62372 1.106 0.94686 0.55845 0.49593 0.79517 1.1084 0.85831 1.8111 0.037 0.40887 0.10619 0.80362 0.26529 1.1811 0.16863 0.0557 0.3362 0.11042 0.50447 0.16615 0.0392-0.69038-0.29845-1.3272-0.30303-2.1125 0.77999 0.17363 1.3592 0.71088 2.0712 0.93207 0.7239 0.22472 1.4319 0.50165 2.1474 0.756 0.18203-0.10407 0.35207-0.0289 0.51082 0.0536 1.228 0.63112 2.4366 0.30304 3.6382-0.0811 0.40852-0.13124 0.79799-0.31927 1.2393-0.49848 0.23707 0.76694 0.35772 1.5374 0.9391 2.0899 0.11571-0.10055 0.23142-0.20038 0.34784-0.30022-0.19756-0.43427-0.41346-0.86148-0.5895-1.3046-0.33408-0.8382-0.31361-0.87348 0.51824-1.3195 0.29104-0.39052 0.62547-0.52846 1.1021-0.28109 0.33373 0.17251 0.75495 0.0427 1.0986 0.23562v-9e-3c0.4699 0.031 0.93345 0.097 1.3857 0.23424l0.0653-7e-3 0.0571 0.0328c0.51223 0.0243 1.0252 0.0483 1.5378 0.0723l0.0423-0.0275 0.0466 0.0166c0.21202-0.139 0.41345-0.30382 0.69462-0.25365l0.0416-0.0335 0.0533 6e-3c0.48543-0.33613 1.0513-0.54572 1.4976-0.94439 0.16404-0.15667 0.32808-0.31214 0.49318-0.46881 0.0624-0.31185 0.28081-0.53096 0.45932-0.77431 0.0526-0.17572 0.0547-0.36946 0.16121-0.52712 0.0117-0.0253 0.0279-0.0504 0.0508-0.0723 9e-3 -0.13162 0.0998-0.20602 0.19333-0.27838 0.0868-0.66353 0.34325-1.3069 0.23601-1.9928-0.48331-1.8306-1.4242-3.3768-2.8674-4.6101-0.25189-0.0999-0.50342-0.199-0.75495-0.29848-0.28822-0.15558-0.57608-0.17639-0.87912-0.0289-0.20496 0.0988-0.41522 0.1972-0.65334 0.19015-0.0498 0.0106-0.0995 0.0201-0.14958 0.0303-0.15028 0.0526-0.30092 0.10403-0.4512 0.15666-0.33373 0.30512-0.77788 0.41798-1.1486 0.66009-0.59478 0.34561-0.59478 0.34561-0.93521-0.32812-0.17816-0.49251-0.56127-0.81993-0.92887-1.1617-0.22084-0.20465-0.43532-0.41632-0.65228-0.62481-0.47519-0.10019-0.79799-0.53192-1.3042-0.58773-0.19297-0.0215-0.17004-0.22189-0.0808-0.36865 0.1337-0.2184 0.30868-0.40114 0.52599-0.54045-0.0113-0.0413 1e-3 -0.0737 0.0363-0.0977 0.26141-0.45611 0.57609-0.87105 0.9592-1.2319 0.01-0.16192 0.0198-0.32385 0.0296-0.48507-0.0787-0.23636-0.15699-0.47198-0.23495-0.70834-0.0169-0.0484-0.0332-0.097-0.0501-0.14538-0.4131-0.87768-1.0065-1.5606-1.9163-1.9762-0.60466-0.27478-1.2478-0.2431-1.8687-0.37179-0.23777-0.0491-0.56868 0.0645-0.6544-0.23784-0.0667-0.23566 0.19896-0.38449 0.36265-0.54145 0.25647-0.24556 0.51153-0.4936 0.76623-0.74016-0.0596-0.12277-0.12029-0.24514-0.18097-0.36724-0.61701 0.23206-0.92886 0.7669-1.2608 1.2795-0.18203 0.28043-0.35348 0.54723-0.73519 0.61035-0.67874 0.11176-1.354 0.25149-2.0253 0.40029-1.6655 0.37014-3.2078 1.0136-4.5494 2.0927-0.41874 0.33623-0.85019 0.65577-1.2686 0.99271-0.23354 0.18772-0.44344 0.23855-0.66287-0.0158-0.1143-0.13299-0.26599-0.21346-0.36759-0.37743-1.0082-1.6377-1.9276-3.3052-2.3329-5.2179-0.38276-1.801-0.88724-3.5748-1.2062-5.3909-0.0744-0.42718-0.0219-0.67801 0.38453-0.93582 0.73272-0.46358 1.4573-1.0115 1.8038-1.8299 0.3041-0.71864 0.62654-1.4629 0.5962-2.2822-0.35313-0.90371-0.56092-1.8478-0.39264-2.8021 0.0621-0.34989-0.01-0.62687-0.0582-0.93445-0.48895-0.33941-1.0756-0.40501-1.6267-0.56899-0.0508-5e-3 -0.10195-0.011-0.15346-0.016-0.29386-0.0448-0.3108-0.25011-0.28116-0.48355-0.0303-0.0318-0.0349-0.0667-0.0138-0.10556-0.0222-0.0507-0.0363-0.10404-0.0455-0.15696-0.0684-0.23854-0.13511-0.47694-0.20743-0.71368-0.0469-0.15379-0.13018-0.28113-0.31468-0.27975-0.13794 1e-3 -0.2346 0.073-0.30304 0.19403-0.17497 0.31075-0.34219 0.57685-0.11888 0.98006 0.25012 0.45117 0.17709 0.52421-0.27764 0.7655-0.36265 0.19224-0.74683 0.31888-1.186 0.40005-0.22331-0.30593-0.2092-0.69853-0.28187-1.059-0.0444-0.22117-0.11959-0.39191-0.33831-0.45999-0.16792-0.0513-0.35454-0.11506-0.51329 9e-3 -0.1651 0.13009-0.13759 0.31502-0.0783 0.49072 0.0656 0.19362 0.15099 0.38089 0.20461 0.57671 0.14111 0.51263 0.091 0.66601-0.4258 0.8785-0.71402 0.29421-1.1194 0.84943-1.4228 1.5152-0.12418 0.2727-0.13688 0.53647 0.0575 0.7874 0.23177 0.30057 0.29175 0.6441 0.24977 1.0127 0.0321 0.0251 0.0346 0.0526 7e-3 0.083 0.30657 0.78175 0.64947 1.5515 0.91158 2.348 0.39229 1.1935 1.1486 1.9167 2.4239 1.9679"/>
   <path d="m455.8 247.81h-1e-3c0.21484-0.38379 0.50765-0.70238 0.83503-0.99095 0.18908-0.18948 0.1143-0.55203 0.43038-0.65857 0.0822-0.22049 0.11325-0.4699 0.35314-0.59626 0.0219-0.0455 0.0434-0.0914 0.0649-0.13618 0.0113-0.21523 0.15769-0.34258 0.3055-0.4688 1e-3 -0.1185 4e-3 -0.23562 0.13794-0.29214 0.19614-0.35662 0.38523-0.71712 0.59161-1.0678 0.27375-0.46771 0.50659-0.94866 0.53728-1.5007 0.0205-0.37013 0.19826-0.6883 0.3496-1.0065 0.13864-0.29309 0.22119-0.59901 0.1524-0.89034-0.15134-0.63927-0.0557-1.2747-0.0557-1.9122 0-0.91077-0.16686-1.7646-0.70555-2.5353-0.4953-0.70776-0.83785-1.5145-1.3885-2.189-0.20531-0.018-0.36442-0.0952-0.4131-0.31791-0.091-0.0832-0.18133-0.16647-0.27305-0.24942-0.061 0.18672-0.097 0.37717-0.0709 0.57478 0.81033 0.65718 1.2178 1.6149 1.7836 2.4486 0.33831 0.49844 0.46178 1.1196 0.51611 1.7413 0.0984 1.1257-0.066 2.2433-0.19156 3.3464-0.0889 0.78423-0.23601 1.6248-0.71437 2.3159-0.21908 0.31683-0.38488 0.6587-0.5768 0.9882-0.88723 1.5183-1.8246 3.0045-3.2336 4.1162-0.0102 0.17004 0.0275 0.32561 0.14006 0.45861 0.47519-0.39261 0.95073-0.78521 1.4266-1.178"/>
  </g>
  <path transform="matrix(.26458 0 0 .26458 257.46 8.0598)" d="m-120.69 330.71c0.0412-3.3335 0.49396-4.4526 1.0062-2.4869 0.51223 1.9657 0.47855 4.6931-0.0749 6.0609-0.55341 1.3678-0.97251-0.24048-0.93134-3.574z" fill="#ff789e" stroke="#fef8e7" stroke-width="2.0235"/>
  <g transform="matrix(.35278 0 0 -.35278 629.05 330.01)">
   <g transform="scale(.1)">
    <g font-family="sans-serif" letter-spacing="0px" word-spacing="0px">
     <flowRoot fill="#000000" font-size="180px" stroke-width="1px" style="line-height:25px" xml:space="preserve"><flowRegion><rect x="123.24" y="278.76" width="309.11" height="343.45"/></flowRegion><flowPara/></flowRoot>
     <flowRoot transform="matrix(23.55 0 0 -21.928 -677.93 4425.1)" fill="#ffffff" font-size="180px" font-weight="bold" stroke-width="1px" style="line-height:25px" xml:space="preserve"><flowRegion fill="#ffffff" font-family="sans-serif" font-weight="bold"><rect x="88.893" y="48.446" width="608.11" height="697.01" fill="#fff"/></flowRegion><flowPara/></flowRoot>
     <text transform="scale(1.052 -.95054)" x="1361.0403" y="-1825.5187" fill="#ffffff" font-size="4073.9px" font-weight="bold" stroke-width="22.633px" style="line-height:565.82177734px" xml:space="preserve"><tspan x="1361.0403" y="-372.04797" fill="#ffffff" font-family="sans-serif" font-weight="bold" stroke-width="22.633px"/></text>
    </g>
    <flowRoot transform="matrix(7.5 0 0 -7.5 0 6e3)" fill="#000000" font-family="Arial" font-size="180px" letter-spacing="0px" stroke-width="1px" word-spacing="0px" style="line-height:25px" xml:space="preserve"><flowRegion font-family="Arial"><rect x="860.65" y="36.325" width="197.99" height="284.86"/></flowRegion><flowPara/></flowRoot>
    <g transform="translate(1969.8 -4182)">
     <path d="m0 0.5v-0.5h200v200h-200v-199.5m110.5 170.5q0.5 0 0.5-0.5v-0.5h4.5q0.5 0 0.5-0.5v-0.5h4.5q0.5 0 0.5-0.5v-0.5h2.5q0.5 0 0.5-0.5v-0.5h2.5q0.5 0 0.5-0.5v-0.5h1.5q0.5 0 0.5-0.5v-0.5h2.5q0.5 0 0.5-0.5v-0.5h1.5q0.5 0 0.5-0.5v-0.5h1.5q0.5 0 0.5-0.5v-0.5h1.5q0.5 0 0.5-0.5v-0.5h0.5q0.5 0 0.5-0.5v-0.5h1.5q0.5 0 0.5-0.5v-0.5h0.5q0.5 0 0.5-0.5v-0.5h1.5q0.5 0 0.5-0.5v-0.5h0.5q0.5 0 0.5-0.5v-0.5h1.5q0.5 0 0.5-0.5v-0.5h0.5q0.5 0 0.5-0.5v-0.5h0.5q0.5 0 0.5-0.5v-0.5h0.5q0.5 0 0.5-0.5v-0.5h0.5q0.5 0 0.5-0.5v-0.5h0.5q0.5 0 0.5-0.5v-0.5h0.5q0.5 0 0.5-0.5v-0.5h0.5q0.5 0 0.5-0.5v-0.5h0.5q0.5 0 0.5-0.5v-0.5h0.5q0.5 0 0.5-0.5v-0.5h0.5q0.5 0 0.5-0.5v-0.5h0.5q0.5 0 0.5-0.5v-1.5h0.5q0.5 0 0.5-0.5v-0.5h0.5q0.5 0 0.5-0.5v-0.5h0.5q0.5 0 0.5-0.5v-1.5h0.5q0.5 0 0.5-0.5v-1.5h0.5q0.5 0 0.5-0.5v-0.5h0.5q0.5 0 0.5-0.5v-1.5h0.5q0.5 0 0.5-0.5v-1.5h0.5q0.5 0 0.5-0.5v-1.5h0.5q0.5 0 0.5-0.5v-2.5h0.5q0.5 0 0.5-0.5v-1.5h0.5q0.5 0 0.5-0.5v-3.5h0.5q0.5 0 0.5-0.5v-2.5h0.5q0.5 0 0.5-0.5v-4.5h0.5q0.5 0 0.5-0.5v-8.5h0.5q0.5 0 0.5-0.5v-10q0-0.5-0.5-0.5h-0.5v-8.5q0-0.5-0.5-0.5h-0.5v-4.5q0-0.5-0.5-0.5h-0.5v-2.5q0-0.5-0.5-0.5h-0.5v-3.5q0-0.5-0.5-0.5h-0.5v-1.5q0-0.5-0.5-0.5h-0.5v-2.5q0-0.5-0.5-0.5h-0.5v-1.5q0-0.5-0.5-0.5h-0.5v-1.5q0-0.5-0.5-0.5h-0.5v-1.5q0-0.5-0.5-0.5h-0.5v-0.5q0-0.5-0.5-0.5h-0.5v-1.5q0-0.5-0.5-0.5h-0.5v-0.5q0-0.5-0.5-0.5h-0.5v-1.5q0-0.5-0.5-0.5h-0.5v-0.5q0-0.5-0.5-0.5h-0.5v-1.5q0-0.5-0.5-0.5h-0.5v-0.5q0-0.5-0.5-0.5h-0.5v-0.5q0-0.5-0.5-0.5h-0.5v-0.5q0-0.5-0.5-0.5h-0.5v-0.5q0-0.5-0.5-0.5h-0.5v-0.5q0-0.5-0.5-0.5h-0.5v-0.5q0-0.5-0.5-0.5h-0.5v-0.5q0-0.5-0.5-0.5h-0.5v-0.5q0-0.5-0.5-0.5h-0.5v-0.5q0-0.5-0.5-0.5h-0.5v-0.5q0-0.5-0.5-0.5h-0.5v-0.5q0-0.5-0.5-0.5h-1.5v-0.5q0-0.5-0.5-0.5h-0.5v-0.5q0-0.5-0.5-0.5h-1.5v-0.5q0-0.5-0.5-0.5h-0.5v-0.5q0-0.5-0.5-0.5h-1.5v-0.5q0-0.5-0.5-0.5h-1.5v-0.5q0-0.5-0.5-0.5h-0.5v-0.5q0-0.5-0.5-0.5h-1.5v-0.5q0-0.5-0.5-0.5h-1.5v-0.5q0-0.5-0.5-0.5h-2.5v-0.5q0-0.5-0.5-0.5h-1.5v-0.5q0-0.5-0.5-0.5h-2.5v-0.5q0-0.5-0.5-0.5h-3.5v-0.5q0-0.5-0.5-0.5h-3.5v-0.5q0-0.5-0.5-0.5h-4.5v-0.5q0-0.5-0.5-0.5h-14q-0.5 0-1 0t-1 0-1 0-1 0-1 0-1 0-1 0h-1q-0.5 0-0.5 0.5v1q0 0.5 0 1t0 1 0 1 0 1 0 1 0 1 0 1 0 1 0 1 0 1 0 1 0 1 0 1 0 1 0 1 0 1 0 1 0 1 0 1 0 1 0 1 0 1v1q0 0.5 0 1t0 1 0 1 0 1 0 1 0 1 0 1 0 1 0 1 0 1 0 1 0 1 0 1 0 1 0 1 0 1 0 1v2q0 0.5 0.5 0.5t0.5-0.5v-0.5h0.5q0.5 0 0.5-0.5v-0.5h0.5q0.5 0 0.5-0.5v-0.5h1.5q0.5 0 0.5-0.5v-0.5h0.5q0.5 0 0.5-0.5v-0.5h1.5q0.5 0 0.5-0.5v-0.5h1.5q0.5 0 0.5-0.5v-0.5h1.5q0.5 0 0.5-0.5v-0.5h2.5q0.5 0 0.5-0.5v-0.5h7.5q0.5 0 1 0h6.5v0.5q0 0.5 0.5 0.5h1.5v0.5q0 0.5 0.5 0.5h2.5v0.5q0 0.5 0.5 0.5h0.5v0.5q0 0.5 0.5 0.5h1.5v0.5q0 0.5 0.5 0.5h0.5v0.5q0 0.5 0.5 0.5h0.5v0.5q0 0.5 0.5 0.5h0.5v0.5q0 0.5 0.5 0.5h0.5v0.5q0 0.5 0.5 0.5h0.5v1.5q0 0.5 0.5 0.5h0.5v0.5q0 0.5 0.5 0.5h0.5v1.5q0 0.5 0.5 0.5h0.5v1.5q0 0.5 0.5 0.5h0.5v2.5q0 0.5 0.5 0.5h0.5v2.5q0 0.5 0.5 0.5h0.5v3.5q0 0.5 0.5 0.5h0.5v6.5q0 0.5 0.5 0.5h0.5v10h-0.5q-0.5 0-0.5 0.5v6.5h-0.5q-0.5 0-0.5 0.5v3.5h-0.5q-0.5 0-0.5 0.5v2.5h-0.5q-0.5 0-0.5 0.5v1.5h-0.5q-0.5 0-0.5 0.5v1.5h-0.5q-0.5 0-0.5 0.5v1.5h-0.5q-0.5 0-0.5 0.5v0.5h-0.5q-0.5 0-0.5 0.5v1.5h-0.5q-0.5 0-0.5 0.5v0.5h-0.5q-0.5 0-0.5 0.5v0.5h-0.5q-0.5 0-0.5 0.5v0.5h-0.5q-0.5 0-0.5 0.5v0.5h-0.5q-0.5 0-0.5 0.5v0.5h-0.5q-0.5 0-0.5 0.5v0.5h-0.5q-0.5 0-0.5 0.5v0.5h-0.5q-0.5 0-0.5 0.5v0.5h-1.5q-0.5 0-0.5 0.5v0.5h-1.5q-0.5 0-0.5 0.5v0.5h-1.5q-0.5 0-0.5 0.5v0.5h-2.5q-0.5 0-0.5 0.5v0.5h-3.5q-0.5 0-0.5 0.5v0.5h-8v-0.5q0-0.5-0.5-0.5h-3.5v-0.5q0-0.5-0.5-0.5h-1.5v-0.5q0-0.5-0.5-0.5h-1.5v-0.5q0-0.5-0.5-0.5h-0.5v-0.5q0-0.5-0.5-0.5h-1.5v-0.5q0-0.5-0.5-0.5h-0.5v-0.5q0-0.5-0.5-0.5h-0.5v-0.5q0-0.5-0.5-0.5h-0.5v-0.5q0-0.5-0.5-0.5h-0.5v-0.5q0-0.5-0.5-0.5t-0.5 0.5v3.5h-0.5q-0.5 0-0.5 0.5v2.5h-0.5q-0.5 0-0.5 0.5v0.5h-3.5q-0.5 0-0.5 0.5v0.5h-0.5q-0.5 0-1 0t-1 0-1 0-1 0-1 0-1 0-1 0-1 0-1 0-1 0-1 0-1 0-1 0-1 0-0.5-0.5 0-1 0-1 0-1 0-1 0-1 0-1 0-1 0-1 0-1 0-1 0-1 0-1 0-1 0-1 0-1 0-1 0-1 0-1 0-1 0-1 0-1 0-1 0-1 0-1 0-1 0-1 0-1 0-1 0-1 0-1 0-1 0-1 0-1 0-1 0-1 0-1 0-1 0-1 0-1 0-1 0-1 0-1 0-1 0-1 0-1 0-1 0-1 0-1 0-1 0-1 0-1 0-1 0-1 0-1 0-1 0-1 0-1 0-1 0-1 0-1 0-1 0-1 0-1 0-1 0-1 0-1 0-1 0-1 0-1 0-1 0-1 0-1 0-1 0-1 0-1 0-1 0-1 0-1 0-1 0-1 0-1 0-1 0-1 0-1 0-1 0-1 0-1 0-1 0-1 0-1 0-1 0-1 0-1 0-1 0-1 0-1 0-1 0-1 0-1 0-1 0-1 0-1 0-1 0-1 0-1 0-1 0-1 0-1 0-1 0-1 0-1 0-1-0.5-0.5-1 0-1 0-1 0-1 0-1 0-1 0-1 0-1 0-1 0-1 0-1 0-1 0-1 0-1 0-1 0-1 0-1 0-1 0-1 0-1 0-1 0-1 0-1 0-1 0-0.5 0.5 0 1 0 1 0 1 0 1 0 1 0 1 0 1 0 1 0 1 0 1 0 1 0 1 0 1 0 1 0 1 0 1 0 1 0 1 0 1 0 1 0 1 0 1 0 1 0 1 0 1 0 1 0 1 0 1 0 1 0 1 0 1 0 1 0 1 0 1 0 1 0 1 0 1 0 1 0 1 0 1 0 1 0 1 0 1 0 1 0 1 0 1 0 1 0 1 0 1 0 1 0 1 0 1 0 1 0 1 0 1 0 1 0 1 0 1 0 1 0 1 0 1 0 1 0 1 0 1 0 1 0 1 0 1 0 1 0 1 0 1 0 1 0 1 0 1 0 1 0 1 0 1 0 1 0 1 0 1 0 1 0 1 0 1 0 1 0 1 0 1 0 1 0 1 0 1 0 1 0 1 0 1 0 1 0 1 0 1 0 1 0 1 0 1 0 1 0 1 0 1 0 1 0 1 0 1 0 1 0 1 0 1 0 1 0 1 0 1 0 1 0 1 0 1 0 1 0 1 0 1 0 1 0 1 0 1 0 1 0 1 0 1 0 1 0 1 0 1 0 1 0 1 0 1 0 1 0 1 0 1 0 1 0 1 0 1 0 1 0 1 0 1 0 1 0 1 0 1 0 1 0 1 0 1 0 1 0 1 0.5 0.5 1 0 1 0 1 0 1 0 1 0 1 0 1 0 1 0 1 0 1 0 1 0 1 0 1 0 1 0 1 0 1 0 1 0 1 0 1 0 1 0 1 0 1 0 1 0 1 0 1 0 1 0 1 0 1 0 1 0 1 0 1 0 1 0 1 0 1 0 1 0 1 0 1 0 1 0 1 0 1 0 1 0 1 0 1 0 1 0 1 0 1 0 1 0 1 0 1 0 1 0 1 0 1 0 1 0 1 0 1 0 1 0h14m-5-48q0.5 0 0.5-0.5v-0.5h1.5q0.5 0 0.5-0.5v-0.5h0.5q0.5 0 0.5-0.5v-0.5h0.5q0.5 0 0.5-0.5v-0.5h0.5q0.5 0 0.5-0.5v-0.5h0.5q0.5 0 0.5-0.5v-1.5h0.5q0.5 0 0.5-0.5v-1.5h0.5q0.5 0 0.5-0.5v-2.5h0.5q0.5 0 0.5-0.5v-5.5h0.5q0.5 0 0.5-0.5v-11q0-0.5-0.5-0.5h-0.5v-5.5q0-0.5-0.5-0.5h-0.5v-2.5q0-0.5-0.5-0.5h-0.5v-1.5q0-0.5-0.5-0.5h-0.5v-0.5q0-0.5-0.5-0.5h-0.5v-1.5q0-0.5-0.5-0.5h-1.5v-0.5q0-0.5-0.5-0.5h-1.5v-0.5q0-0.5-0.5-0.5h-9q-0.5 0-0.5 0.5v0.5h-1.5q-0.5 0-0.5 0.5v0.5h-1.5q-0.5 0-0.5 0.5v0.5h-1.5q-0.5 0-0.5 0.5v0.5h-0.5q-0.5 0-0.5 0.5v0.5h-0.5q-0.5 0-0.5 0.5v0.5h-0.5q-0.5 0-0.5 0.5v2q0 0.5 0 1t0 1 0 1 0 1 0 1 0 1 0 1 0 1 0 1 0 1 0 1 0 1 0 1 0 1 0 1 0 1 0 1 0 1 0 1 0 1 0 1 0 1 0 1 0 1 0 1 0 1 0 1 0 1 0 1 0 1 0 1v2q0 0.5 0.5 0.5h0.5v0.5q0 0.5 0.5 0.5h0.5v0.5q0 0.5 0.5 0.5h1.5v0.5q0 0.5 0.5 0.5h1.5v0.5q0 0.5 0.5 0.5h11" fill-opacity="0"/>
     <g>
      <path d="m40 26.5q0-0.5 0.5-0.5t1 0 1 0 1 0 1 0 1 0 1 0 1 0 1 0 1 0 1 0 1 0 1 0 1 0 1 0 1 0 1 0 1 0 1 0 1 0 1 0 1 0 1 0 1 0 1 0 0.5 0.5 0 1 0 1 0 1 0 1 0 1 0 1 0 1 0 1 0 1 0 1 0 1 0 1 0 1 0 1 0 1 0 1 0 1 0 1 0 1 0 1 0 1 0 1 0 1 0 1 0 1 0 1 0 1 0 1 0 1 0 1 0 1 0 1 0 1 0 1 0 1 0 1 0 1 0 1 0 1 0 1 0 1 0 1 0 1 0 1 0 1 0 1 0 1 0 1 0 1 0 1 0 1 0 1 0 1 0 1 0 1 0 1 0 1 0 1 0 1 0 1 0 1 0 1 0 1 0 1 0 1 0 1 0 1 0 1 0 1 0 1 0 1 0 1 0 1 0 1 0 1 0 1 0 1 0 1 0 1 0 1 0 1 0 1 0 1 0 1 0 1 0 1 0 1 0 1 0 1 0 1 0 1 0 1 0 1 0 1 0 1 0 1 0 1 0 1 0 1 0 1 0 1 0 1 0 1 0 1 0 1 0 1 0 1 0 1 0 1 0 1 0 1 0 1 0.5 0.5 1 0 1 0 1 0 1 0 1 0 1 0 1 0 1 0 1 0 1 0 1 0 1 0 1 0 1 0h5q0.5 0 0.5-0.5v-0.5h0.5q0.5 0 0.5-0.5v-2.5h0.5q0.5 0 0.5-0.5v-1.5h1v0.5q0 0.5 0.5 0.5h0.5v0.5q0 0.5 0.5 0.5h1.5v0.5q0 0.5 0.5 0.5h0.5v0.5q0 0.5 0.5 0.5h0.5v0.5q0 0.5 0.5 0.5h1.5v0.5q0 0.5 0.5 0.5h2.5v0.5q0 0.5 0.5 0.5h3.5v0.5q0 0.5 0.5 0.5h7q0.5 0 0.5-0.5v-0.5h4.5q0.5 0 0.5-0.5v-0.5h2.5q0.5 0 0.5-0.5v-0.5h1.5q0.5 0 0.5-0.5v-0.5h1.5q0.5 0 0.5-0.5v-0.5h0.5q0.5 0 0.5-0.5v-0.5h1.5q0.5 0 0.5-0.5v-0.5h0.5q0.5 0 0.5-0.5v-0.5h0.5q0.5 0 0.5-0.5v-0.5h0.5q0.5 0 0.5-0.5v-0.5h0.5q0.5 0 0.5-0.5v-0.5h0.5q0.5 0 0.5-0.5v-0.5h0.5q0.5 0 0.5-0.5v-0.5h0.5q0.5 0 0.5-0.5v-1.5h0.5q0.5 0 0.5-0.5v-0.5h0.5q0.5 0 0.5-0.5v-1.5h0.5q0.5 0 0.5-0.5v-1.5h0.5q0.5 0 0.5-0.5v-2.5h0.5q0.5 0 0.5-0.5v-2.5h0.5q0.5 0 0.5-0.5v-2.5h0.5q0.5 0 0.5-0.5v-6.5h0.5q0.5 0 0.5-0.5v-11q0-0.5-0.5-0.5h-0.5v-6.5q0-0.5-0.5-0.5h-0.5v-3.5q0-0.5-0.5-0.5h-0.5v-2.5q0-0.5-0.5-0.5h-0.5v-1.5q0-0.5-0.5-0.5h-0.5v-1.5q0-0.5-0.5-0.5h-0.5v-1.5q0-0.5-0.5-0.5h-0.5v-1.5q0-0.5-0.5-0.5h-0.5v-0.5q0-0.5-0.5-0.5h-0.5v-1.5q0-0.5-0.5-0.5h-0.5v-0.5q0-0.5-0.5-0.5h-0.5v-0.5q0-0.5-0.5-0.5h-0.5v-0.5q0-0.5-0.5-0.5h-1.5v-0.5q0-0.5-0.5-0.5h-0.5v-0.5q0-0.5-0.5-0.5h-1.5v-0.5q0-0.5-0.5-0.5h-1.5v-0.5q0-0.5-0.5-0.5h-2.5v-0.5q0-0.5-0.5-0.5h-6q-0.5 0-1 0h-8q-0.5 0-0.5 0.5v0.5h-2.5q-0.5 0-0.5 0.5v0.5h-1.5q-0.5 0-0.5 0.5v0.5h-1.5q-0.5 0-0.5 0.5v0.5h-1.5q-0.5 0-0.5 0.5v0.5h-0.5q-0.5 0-0.5 0.5v0.5h-0.5q-0.5 0-0.5 0.5v0.5h-2v-0.5q0-0.5 0-1t0-1 0-1 0-1 0-1 0-1 0-1 0-1 0-1 0-1 0-1 0-1 0-1 0-1 0-1 0-1v-1q0-0.5 0-1t0-1 0-1 0-1 0-1 0-1 0-1 0-1 0-1 0-1 0-1 0-1 0-1 0-1 0-1 0-1 0-1 0-1 0-1 0-1 0-1 0-1v-1.5h0.5q0.5 0 1 0t1 0 1 0 1 0 1 0 1 0 1 0h0.5v0.5q0 0.5 0.5 0.5h12.5v0.5q0 0.5 0.5 0.5h5.5v0.5q0 0.5 0.5 0.5h3.5v0.5q0 0.5 0.5 0.5h2.5v0.5q0 0.5 0.5 0.5h2.5v0.5q0 0.5 0.5 0.5h1.5v0.5q0 0.5 0.5 0.5h2.5v0.5q0 0.5 0.5 0.5h1.5v0.5q0 0.5 0.5 0.5h1.5v0.5q0 0.5 0.5 0.5h1.5v0.5q0 0.5 0.5 0.5h0.5v0.5q0 0.5 0.5 0.5h1.5v0.5q0 0.5 0.5 0.5h1.5v0.5q0 0.5 0.5 0.5h0.5v0.5q0 0.5 0.5 0.5h0.5v0.5q0 0.5 0.5 0.5h1.5v0.5q0 0.5 0.5 0.5h0.5v0.5q0 0.5 0.5 0.5h0.5v0.5q0 0.5 0.5 0.5h0.5v0.5q0 0.5 0.5 0.5h0.5v0.5q0 0.5 0.5 0.5h0.5v0.5q0 0.5 0.5 0.5h0.5v0.5q0 0.5 0.5 0.5h0.5v0.5q0 0.5 0.5 0.5h0.5v0.5q0 0.5 0.5 0.5h0.5v0.5q0 0.5 0.5 0.5h0.5v0.5q0 0.5 0.5 0.5h0.5v1.5q0 0.5 0.5 0.5h0.5v0.5q0 0.5 0.5 0.5h0.5v0.5q0 0.5 0.5 0.5h0.5v1.5q0 0.5 0.5 0.5h0.5v0.5q0 0.5 0.5 0.5h0.5v1.5q0 0.5 0.5 0.5h0.5v1.5q0 0.5 0.5 0.5h0.5v1.5q0 0.5 0.5 0.5h0.5v1.5q0 0.5 0.5 0.5h0.5v2.5q0 0.5 0.5 0.5h0.5v1.5q0 0.5 0.5 0.5h0.5v2.5q0 0.5 0.5 0.5h0.5v3.5q0 0.5 0.5 0.5h0.5v4.5q0 0.5 0.5 0.5h0.5v7.5q0 0.5 0.5 0.5h0.5v11h-0.5q-0.5 0-0.5 0.5v7.5h-0.5q-0.5 0-0.5 0.5v4.5h-0.5q-0.5 0-0.5 0.5v3.5h-0.5q-0.5 0-0.5 0.5v2.5h-0.5q-0.5 0-0.5 0.5v1.5h-0.5q-0.5 0-0.5 0.5v2.5h-0.5q-0.5 0-0.5 0.5v1.5h-0.5q-0.5 0-0.5 0.5v1.5h-0.5q-0.5 0-0.5 0.5v1.5h-0.5q-0.5 0-0.5 0.5v1.5h-0.5q-0.5 0-0.5 0.5v0.5h-0.5q-0.5 0-0.5 0.5v1.5h-0.5q-0.5 0-0.5 0.5v0.5h-0.5q-0.5 0-0.5 0.5v1.5h-0.5q-0.5 0-0.5 0.5v0.5h-0.5q-0.5 0-0.5 0.5v0.5h-0.5q-0.5 0-0.5 0.5v0.5h-0.5q-0.5 0-0.5 0.5v0.5h-0.5q-0.5 0-0.5 0.5v0.5h-0.5q-0.5 0-0.5 0.5v0.5h-0.5q-0.5 0-0.5 0.5v0.5h-0.5q-0.5 0-0.5 0.5v0.5h-0.5q-0.5 0-0.5 0.5v0.5h-0.5q-0.5 0-0.5 0.5v0.5h-0.5q-0.5 0-0.5 0.5v0.5h-0.5q-0.5 0-0.5 0.5v0.5h-0.5q-0.5 0-0.5 0.5v0.5h-1.5q-0.5 0-0.5 0.5v0.5h-0.5q-0.5 0-0.5 0.5v0.5h-1.5q-0.5 0-0.5 0.5v0.5h-0.5q-0.5 0-0.5 0.5v0.5h-1.5q-0.5 0-0.5 0.5v0.5h-1.5q-0.5 0-0.5 0.5v0.5h-1.5q-0.5 0-0.5 0.5v0.5h-1.5q-0.5 0-0.5 0.5v0.5h-1.5q-0.5 0-0.5 0.5v0.5h-2.5q-0.5 0-0.5 0.5v0.5h-2.5q-0.5 0-0.5 0.5v0.5h-2.5q-0.5 0-0.5 0.5v0.5h-3.5q-0.5 0-0.5 0.5v0.5h-5.5q-0.5 0-0.5 0.5v0.5h-12.5q-0.5 0-0.5 0.5v0.5h-0.5q-0.5 0-1 0t-1 0-1 0-1 0-1 0-1 0-1 0-1 0-1 0-1 0-1 0-1 0-1 0-1 0-1 0-1 0-1 0-1 0-1 0-1 0-1 0-1 0-1 0-1 0-1 0-1 0-1 0-1 0-1 0-1 0-1 0-1 0-1 0-1 0-1 0-1 0-1 0-1 0-1 0-1 0-1 0-1 0-1 0-1 0-1 0-1 0-1 0-1 0-1 0-1 0-1 0-1 0-1 0-1 0-1 0-1 0-0.5-0.5 0-1 0-1 0-1 0-1 0-1 0-1 0-1 0-1 0-1 0-1 0-1 0-1 0-1 0-1 0-1 0-1 0-1 0-1 0-1 0-1 0-1 0-1 0-1 0-1 0-1 0-1 0-1 0-1 0-1 0-1 0-1 0-1 0-1 0-1 0-1 0-1 0-1 0-1 0-1 0-1 0-1 0-1 0-1 0-1 0-1 0-1 0-1 0-1 0-1 0-1 0-1 0-1 0-1 0-1 0-1 0-1 0-1 0-1 0-1 0-1 0-1 0-1 0-1 0-1 0-1 0-1 0-1 0-1 0-1 0-1 0-1 0-1 0-1 0-1 0-1 0-1 0-1 0-1 0-1 0-1 0-1 0-1 0-1 0-1 0-1 0-1 0-1 0-1 0-1 0-1 0-1 0-1 0-1 0-1 0-1 0-1 0-1 0-1 0-1 0-1 0-1 0-1 0-1 0-1 0-1 0-1 0-1 0-1 0-1 0-1 0-1 0-1 0-1 0-1 0-1 0-1 0-1 0-1 0-1 0-1 0-1 0-1 0-1 0-1 0-1 0-1 0-1 0-1 0-1 0-1 0-1 0-1 0-1 0-1 0-1 0-1 0-1 0-1 0-1 0-1 0-1 0-1 0-1 0-1"/>
      <path d="m88 26.5q0-0.5 0.5-0.5h0.5v1h-1v-0.5" fill-opacity=".74902"/>
      <path d="m97 26.5v-0.5h1v1h-0.5q-0.5 0-0.5-0.5" fill-opacity=".98039"/>
      <path d="m98 26.5v-0.5h1v1h-1v-0.5" fill-opacity=".96078"/>
      <path d="m99 26.5v-0.5h1v1h-1v-0.5" fill-opacity=".94118"/>
      <path d="m100 26.5v-0.5h1v1h-1v-0.5" fill-opacity=".92157"/>
      <path d="m101 26.5v-0.5h1v1h-1v-0.5" fill-opacity=".87059"/>
      <path d="m102 26.5v-0.5h1v1h-1v-0.5" fill-opacity=".80784"/>
      <path d="m103 26.5v-0.5h1v1h-1v-0.5" fill-opacity=".7451"/>
      <path d="m104 26.5v-0.5h1v1h-1v-0.5" fill-opacity=".68235"/>
      <path d="m105 26.5v-0.5h1v1h-1v-0.5" fill-opacity=".59216"/>
      <path d="m106 26.5v-0.5h1v1h-1v-0.5" fill-opacity=".48235"/>
      <path d="m107 26.5v-0.5h1v1h-1v-0.5" fill-opacity=".37647"/>
      <path d="m108 26.5v-0.5h1v1h-1v-0.5" fill-opacity=".26667"/>
      <path d="m109 26.5v-0.5h1v1h-1v-0.5" fill-opacity=".13333"/>
      <path d="m110 26.5v-0.5h0.5q0.5 0 0.5 0.5v0.5h-1v-0.5" fill-opacity=".0078431"/>
      <path d="m88 27.5v-0.5h1v0.5q0 0.5 0 1t0 1 0 1 0 1 0 1 0 1 0 1 0 1 0 1 0 1 0 1 0 1 0 1 0 1 0 1 0 1 0 1 0 1 0 1 0 1 0 1 0 1v0.5h-1v-0.5q0-0.5 0-1t0-1 0-1 0-1 0-1 0-1 0-1 0-1 0-1 0-1 0-1 0-1 0-1 0-1 0-1 0-1 0-1 0-1 0-1 0-1 0-1 0-1" fill-opacity=".56078"/>
      <path d="m110 27.5v-0.5h1v1h-0.5q-0.5 0-0.5-0.5" fill-opacity=".97255"/>
      <path d="m111 27.5v-0.5h1v1h-1v-0.5" fill-opacity=".83137"/>
      <path d="m112 27.5v-0.5h1v1h-1v-0.5" fill-opacity=".67843"/>
      <path d="m113 27.5v-0.5h1v1h-1v-0.5" fill-opacity=".49412"/>
      <path d="m114 27.5v-0.5h1v1h-1v-0.5" fill-opacity=".2902"/>
      <path d="m115 27.5v-0.5h0.5q0.5 0 0.5 0.5v0.5h-1v-0.5" fill-opacity=".086275"/>
      <path d="m116 28.5v-0.5h1v1h-0.5q-0.5 0-0.5-0.5" fill-opacity=".88235"/>
      <path d="m117 28.5v-0.5h1v1h-1v-0.5" fill-opacity=".63922"/>
      <path d="m118 28.5v-0.5h1v1h-1v-0.5" fill-opacity=".38824"/>
      <path d="m119 28.5v-0.5h0.5q0.5 0 0.5 0.5v0.5h-1v-0.5" fill-opacity=".13333"/>
      <path d="m120 29.5v-0.5h1v1h-0.5q-0.5 0-0.5-0.5" fill-opacity=".87451"/>
      <path d="m121 29.5v-0.5h1v1h-1v-0.5" fill-opacity=".56863"/>
      <path d="m122 29.5v-0.5h1v1h-1v-0.5" fill-opacity=".25882"/>
      <path d="m123 29.5v-0.5h0.5q0.5 0 0.5 0.5v0.5h-1v-0.5" fill-opacity=".015686"/>
      <path d="m123 30.5v-0.5h1v1h-0.5q-0.5 0-0.5-0.5" fill-opacity=".93725"/>
      <path d="m124 30.5v-0.5h1v1h-1v-0.5" fill-opacity=".61569"/>
      <path d="m125 30.5v-0.5h1v1h-1v-0.5" fill-opacity=".2549"/>
      <path d="m126 30.5v-0.5h0.5q0.5 0 0.5 0.5v0.5h-1v-0.5" fill-opacity=".0039216"/>
      <path d="m126 31.5v-0.5h1v1h-0.5q-0.5 0-0.5-0.5" fill-opacity=".88627"/>
      <path d="m127 31.5v-0.5h1v1h-1v-0.5" fill-opacity=".52549"/>
      <path d="m128 31.5v-0.5h0.5q0.5 0 0.5 0.5v0.5h-1v-0.5" fill-opacity=".12549"/>
      <path d="m128 32.5v-0.5h1v1h-0.5q-0.5 0-0.5-0.5" fill-opacity=".99216"/>
      <path d="m129 32.5v-0.5h1v1h-1v-0.5" fill-opacity=".69804"/>
      <path d="m130 32.5v-0.5h1v1h-1v-0.5" fill-opacity=".27451"/>
      <path d="m131 32.5v-0.5h0.5q0.5 0 0.5 0.5v0.5h-1v-0.5" fill-opacity=".0039216"/>
      <path d="m131 33.5v-0.5h1v1h-0.5q-0.5 0-0.5-0.5" fill-opacity=".82353"/>
      <path d="m132 33.5v-0.5h1v1h-1v-0.5" fill-opacity=".35294"/>
      <path d="m133 33.5v-0.5h0.5q0.5 0 0.5 0.5v0.5h-1v-0.5" fill-opacity=".011765"/>
      <path d="m133 34.5v-0.5h1v1h-0.5q-0.5 0-0.5-0.5" fill-opacity=".87059"/>
      <path d="m134 34.5v-0.5h1v1h-1v-0.5" fill-opacity=".39216"/>
      <path d="m135 34.5v-0.5h0.5q0.5 0 0.5 0.5v0.5h-1v-0.5" fill-opacity=".011765"/>
      <path d="m135 35.5v-0.5h1v1h-0.5q-0.5 0-0.5-0.5" fill-opacity=".84706"/>
      <path d="m136 35.5v-0.5h0.5q0.5 0 0.5 0.5v0.5h-1v-0.5" fill-opacity=".32157"/>
      <path d="m137 36.5v-0.5h1v1h-0.5q-0.5 0-0.5-0.5" fill-opacity=".77647"/>
      <path d="m138 36.5v-0.5h0.5q0.5 0 0.5 0.5v0.5h-1v-0.5" fill-opacity=".19608"/>
      <path d="m138 37.5v-0.5h1v1h-0.5q-0.5 0-0.5-0.5" fill-opacity=".99216"/>
      <path d="m139 37.5v-0.5h1v1h-1v-0.5" fill-opacity=".58824"/>
      <path d="m140 37.5v-0.5h0.5q0.5 0 0.5 0.5v0.5h-1v-0.5" fill-opacity=".066667"/>
      <path d="m140 38.5v-0.5h1v1h-0.5q-0.5 0-0.5-0.5" fill-opacity=".91373"/>
      <path d="m141 38.5v-0.5h0.5q0.5 0 0.5 0.5v0.5h-1v-0.5" fill-opacity=".31765"/>
      <path d="m142 39.5v-0.5h1v1h-0.5q-0.5 0-0.5-0.5" fill-opacity=".64706"/>
      <path d="m143 39.5v-0.5h0.5q0.5 0 0.5 0.5v0.5h-1v-0.5" fill-opacity=".070588"/>
      <path d="m143 40.5v-0.5h1v1h-0.5q-0.5 0-0.5-0.5" fill-opacity=".8902"/>
      <path d="m144 40.5v-0.5h0.5q0.5 0 0.5 0.5v0.5h-1v-0.5" fill-opacity=".23137"/>
      <path d="m144 41.5v-0.5h1v1h-0.5q-0.5 0-0.5-0.5" fill-opacity=".98431"/>
      <path d="m145 41.5v-0.5h1v1h-1v-0.5" fill-opacity=".47059"/>
      <path d="m146 41.5v-0.5h0.5q0.5 0 0.5 0.5v0.5h-1v-0.5" fill-opacity=".0039216"/>
      <path d="m146 42.5v-0.5h1v1h-0.5q-0.5 0-0.5-0.5" fill-opacity=".6902"/>
      <path d="m147 42.5v-0.5h0.5q0.5 0 0.5 0.5v0.5h-1v-0.5" fill-opacity=".043137"/>
      <path d="m147 43.5v-0.5h1v1h-0.5q-0.5 0-0.5-0.5" fill-opacity=".81569"/>
      <path d="m148 43.5v-0.5h0.5q0.5 0 0.5 0.5v0.5h-1v-0.5" fill-opacity=".11765"/>
      <path d="m148 44.5v-0.5h1v1h-0.5q-0.5 0-0.5-0.5" fill-opacity=".9098"/>
      <path d="m149 44.5v-0.5h0.5q0.5 0 0.5 0.5v0.5h-1v-0.5" fill-opacity=".19216"/>
      <path d="m149 45.5v-0.5h1v1h-0.5q-0.5 0-0.5-0.5" fill-opacity=".9451"/>
      <path d="m150 45.5v-0.5h0.5q0.5 0 0.5 0.5v0.5h-1v-0.5" fill-opacity=".24314"/>
      <path d="m150 46.5v-0.5h1v1h-0.5q-0.5 0-0.5-0.5" fill-opacity=".96863"/>
      <path d="m151 46.5v-0.5h0.5q0.5 0 0.5 0.5v0.5h-1v-0.5" fill-opacity=".29412"/>
      <path d="m151 47.5v-0.5h1v1h-0.5q-0.5 0-0.5-0.5" fill-opacity=".97255"/>
      <path d="m152 47.5v-0.5h0.5q0.5 0 0.5 0.5v0.5h-1v-0.5" fill-opacity=".28235"/>
      <path d="m152 48.5v-0.5h1v1h-0.5q-0.5 0-0.5-0.5" fill-opacity=".96863"/>
      <path d="m153 48.5v-0.5h0.5q0.5 0 0.5 0.5v0.5h-1v-0.5" fill-opacity=".26275"/>
      <path d="m153 49.5v-0.5h1v1h-0.5q-0.5 0-0.5-0.5" fill-opacity=".96078"/>
      <path d="m154 49.5v-0.5h0.5q0.5 0 0.5 0.5v0.5h-1v-0.5" fill-opacity=".20784"/>
      <path d="m88 50.5v-0.5h1v0.5q0 0.5 0 1t0 1 0 1 0 1 0 1 0 1 0 1 0 1 0 1 0 1 0 1 0 1 0 1 0 1 0 1 0 1v1.5h-1v-0.5q0-0.5 0-1t0-1 0-1 0-1 0-1 0-1 0-1 0-1 0-1 0-1 0-1 0-1 0-1 0-1 0-1 0-1 0-1" fill-opacity=".74902"/>
      <path d="m154 50.5v-0.5h1v1h-0.5q-0.5 0-0.5-0.5" fill-opacity=".91373"/>
      <path d="m155 50.5v-0.5h0.5q0.5 0 0.5 0.5v0.5h-1v-0.5" fill-opacity=".12941"/>
      <path d="m155 51.5v-0.5h1v1h-0.5q-0.5 0-0.5-0.5" fill-opacity=".84706"/>
      <path d="m156 51.5v-0.5h0.5q0.5 0 0.5 0.5v0.5h-1v-0.5" fill-opacity=".066667"/>
      <path d="m156 52.5v-0.5h1v1h-0.5q-0.5 0-0.5-0.5" fill-opacity=".71373"/>
      <path d="m157 52.5v-0.5h0.5q0.5 0 0.5 0.5v0.5h-1v-0.5" fill-opacity=".0078431"/>
      <path d="m157 53.5v-0.5h1v1h-1v-0.5" fill-opacity=".51373"/>
      <path d="m157 54.5v-0.5h1v1h-0.5q-0.5 0-0.5-0.5" fill-opacity=".99608"/>
      <path d="m158 54.5v-0.5h0.5q0.5 0 0.5 0.5v0.5h-1v-0.5" fill-opacity=".29412"/>
      <path d="m158 55.5v-0.5h1v1h-0.5q-0.5 0-0.5-0.5" fill-opacity=".91373"/>
      <path d="m159 55.5v-0.5h0.5q0.5 0 0.5 0.5v0.5h-1v-0.5" fill-opacity=".086275"/>
      <path d="m159 56.5v-0.5h1v1h-0.5q-0.5 0-0.5-0.5" fill-opacity=".70588"/>
      <path d="m160 57.5v-0.5h0.5q0.5 0 0.5 0.5v0.5h-1v-0.5" fill-opacity=".39216"/>
      <path d="m160 58.5v-0.5h1v1h-0.5q-0.5 0-0.5-0.5" fill-opacity=".93333"/>
      <path d="m161 58.5v-0.5h0.5q0.5 0 0.5 0.5v0.5h-1v-0.5" fill-opacity=".090196"/>
      <path d="m161 59.5v-0.5h1v1h-0.5q-0.5 0-0.5-0.5" fill-opacity=".65882"/>
      <path d="m102 60.5q0-0.5 0.5-0.5h0.5v1h-1v-0.5" fill-opacity=".99216"/>
      <path d="m103 60.5v-0.5h1v1h-1v-0.5" fill-opacity=".79608"/>
      <path d="m104 60.5v-0.5h1v1h-1v-0.5" fill-opacity=".58431"/>
      <path d="m105 60.5v-0.5h1v1h-1v-0.5" fill-opacity=".44314"/>
      <path d="m106 60.5v-0.5h1v1h-1v-0.5" fill-opacity=".29804"/>
      <path d="m107 60.5v-0.5h1v1h-1v-0.5" fill-opacity=".16863"/>
      <path d="m108 60.5v-0.5h1v1h-1v-0.5" fill-opacity=".11373"/>
      <path d="m109 60.5v-0.5h1v1h-1v-0.5" fill-opacity=".066667"/>
      <path d="m110 60.5v-0.5h0.5q0.5 0 1 0h0.5v1h-0.5q-0.5 0-1 0h-0.5v-0.5" fill-opacity=".023529"/>
      <path d="m112 60.5v-0.5h1v1h-1v-0.5" fill-opacity=".078431"/>
      <path d="m113 60.5v-0.5h1v1h-1v-0.5" fill-opacity=".13333"/>
      <path d="m114 60.5v-0.5h1v1h-1v-0.5" fill-opacity=".24314"/>
      <path d="m115 60.5v-0.5h1v1h-1v-0.5" fill-opacity=".41569"/>
      <path d="m116 60.5v-0.5h1v1h-1v-0.5" fill-opacity=".58824"/>
      <path d="m117 60.5v-0.5h0.5q0.5 0 0.5 0.5v0.5h-1v-0.5" fill-opacity=".83922"/>
      <path d="m162 60.5v-0.5h0.5q0.5 0 0.5 0.5v0.5h-1v-0.5" fill-opacity=".26275"/>
      <path d="m99 61.5q0-0.5 0.5-0.5h0.5v1h-1v-0.5" fill-opacity=".96471"/>
      <path d="m100 61.5v-0.5h1v1h-1v-0.5" fill-opacity=".63137"/>
      <path d="m101 61.5v-0.5h1v1h-1v-0.5" fill-opacity=".3098"/>
      <path d="m102 61.5v-0.5h1v0.5q0 0.5-0.5 0.5h-0.5v-0.5" fill-opacity=".062745"/>
      <path d="m118 61.5v-0.5h1v1h-0.5q-0.5 0-0.5-0.5" fill-opacity=".13333"/>
      <path d="m119 61.5v-0.5h1v1h-1v-0.5" fill-opacity=".43922"/>
      <path d="m120 61.5v-0.5h0.5q0.5 0 0.5 0.5v0.5h-1v-0.5" fill-opacity=".84314"/>
      <path d="m162 61.5v-0.5h1v1h-0.5q-0.5 0-0.5-0.5" fill-opacity=".81569"/>
      <path d="m163 61.5v-0.5h0.5q0.5 0 0.5 0.5v0.5h-1v-0.5" fill-opacity=".0078431"/>
      <path d="m97 62.5q0-0.5 0.5-0.5h0.5v1h-1v-0.5" fill-opacity=".85882"/>
      <path d="m98 62.5v-0.5h1v1h-1v-0.5" fill-opacity=".41176"/>
      <path d="m99 62.5v-0.5h1v0.5q0 0.5-0.5 0.5h-0.5v-0.5" fill-opacity=".058824"/>
      <path d="m120 62.5v-0.5h1v1h-0.5q-0.5 0-0.5-0.5" fill-opacity=".0039216"/>
      <path d="m121 62.5v-0.5h1v1h-1v-0.5" fill-opacity=".28235"/>
      <path d="m122 62.5v-0.5h0.5q0.5 0 0.5 0.5v0.5h-1v-0.5" fill-opacity=".75294"/>
      <path d="m163 62.5v-0.5h1v1h-1v-0.5" fill-opacity=".38824"/>
      <path d="m95 63.5q0-0.5 0.5-0.5h0.5v1h-1v-0.5" fill-opacity=".87843"/>
      <path d="m96 63.5v-0.5h1v1h-1v-0.5" fill-opacity=".38824"/>
      <path d="m97 63.5v-0.5h1v0.5q0 0.5-0.5 0.5h-0.5v-0.5" fill-opacity=".015686"/>
      <path d="m123 63.5v-0.5h1v1h-0.5q-0.5 0-0.5-0.5" fill-opacity=".33333"/>
      <path d="m124 63.5v-0.5h0.5q0.5 0 0.5 0.5v0.5h-1v-0.5" fill-opacity=".88235"/>
      <path d="m163 63.5v-0.5h1v1h-0.5q-0.5 0-0.5-0.5" fill-opacity=".89804"/>
      <path d="m164 63.5v-0.5h0.5q0.5 0 0.5 0.5v0.5h-1v-0.5" fill-opacity=".027451"/>
      <path d="m93 64.5q0-0.5 0.5-0.5h0.5v1h-1v-0.5" fill-opacity=".98039"/>
      <path d="m94 64.5v-0.5h1v1h-1v-0.5" fill-opacity=".51765"/>
      <path d="m95 64.5v-0.5h1v0.5q0 0.5-0.5 0.5h-0.5v-0.5" fill-opacity=".031373"/>
      <path d="m124 64.5v-0.5h1v1h-0.5q-0.5 0-0.5-0.5" fill-opacity=".043137"/>
      <path d="m125 64.5v-0.5h0.5q0.5 0 0.5 0.5v0.5h-1v-0.5" fill-opacity=".63529"/>
      <path d="m164 64.5v-0.5h1v1h-1v-0.5" fill-opacity=".42353"/>
      <path d="m92 65.5q0-0.5 0.5-0.5h0.5v1h-1v-0.5" fill-opacity=".79608"/>
      <path d="m93 65.5v-0.5h1v0.5q0 0.5-0.5 0.5h-0.5v-0.5" fill-opacity=".16863"/>
      <path d="m126 65.5v-0.5h1v1h-0.5q-0.5 0-0.5-0.5" fill-opacity=".39608"/>
      <path d="m127 65.5v-0.5h0.5q0.5 0 0.5 0.5v0.5h-1v-0.5" fill-opacity=".97255"/>
      <path d="m164 65.5v-0.5h1v1h-0.5q-0.5 0-0.5-0.5" fill-opacity=".89412"/>
      <path d="m165 65.5v-0.5h0.5q0.5 0 0.5 0.5v0.5h-1v-0.5" fill-opacity=".027451"/>
      <path d="m91 66.5q0-0.5 0.5-0.5h0.5v1h-1v-0.5" fill-opacity=".57647"/>
      <path d="m92 66.5v-0.5h1v0.5q0 0.5-0.5 0.5h-0.5v-0.5" fill-opacity=".023529"/>
      <path d="m127 66.5v-0.5h1v1h-0.5q-0.5 0-0.5-0.5" fill-opacity=".27451"/>
      <path d="m128 66.5v-0.5h0.5q0.5 0 0.5 0.5v0.5h-1v-0.5" fill-opacity=".96471"/>
      <path d="m165 66.5v-0.5h1v1h-1v-0.5" fill-opacity=".40392"/>
      <path d="m89 67.5v-0.5h1v1h-1v-0.5" fill-opacity=".97255"/>
      <path d="m90 67.5v-0.5h1v0.5q0 0.5-0.5 0.5h-0.5v-0.5" fill-opacity=".3451"/>
      <path d="m128 67.5v-0.5h1v1h-0.5q-0.5 0-0.5-0.5" fill-opacity=".25098"/>
      <path d="m129 67.5v-0.5h0.5q0.5 0 0.5 0.5v0.5h-1v-0.5" fill-opacity=".95686"/>
      <path d="m165 67.5v-0.5h1v1h-0.5q-0.5 0-0.5-0.5" fill-opacity=".84314"/>
      <path d="m166 67.5v-0.5h0.5q0.5 0 0.5 0.5v0.5h-1v-0.5" fill-opacity=".0039216"/>
      <path d="m88 68.5v-0.5h1v1h-1v-0.5" fill-opacity=".6902"/>
      <path d="m89 68.5v-0.5h1v0.5q0 0.5-0.5 0.5h-0.5v-0.5" fill-opacity=".25098"/>
      <path d="m129 68.5v-0.5h1v1h-0.5q-0.5 0-0.5-0.5" fill-opacity=".29804"/>
      <path d="m130 68.5v-0.5h0.5q0.5 0 0.5 0.5v0.5h-1v-0.5" fill-opacity=".99216"/>
      <path d="m166 68.5v-0.5h1v1h-1v-0.5" fill-opacity=".28627"/>
      <path d="m88 69.5v-0.5h1v0.5q0 0.5-0.5 0.5t-0.5-0.5" fill-opacity=".062745"/>
      <path d="m130 69.5v-0.5h1v1h-0.5q-0.5 0-0.5-0.5" fill-opacity=".46667"/>
      <path d="m166 69.5v-0.5h1v1h-1v-0.5" fill-opacity=".72157"/>
      <path d="m131 70.5v-0.5h0.5q0.5 0 0.5 0.5v0.5h-1v-0.5" fill-opacity=".67843"/>
      <path d="m166 70.5v-0.5h1v1h-0.5q-0.5 0-0.5-0.5" fill-opacity=".99216"/>
      <path d="m167 70.5v-0.5h0.5q0.5 0 0.5 0.5v0.5h-1v-0.5" fill-opacity=".11765"/>
      <path d="m131 71.5v-0.5h1v1h-0.5q-0.5 0-0.5-0.5" fill-opacity=".086275"/>
      <path d="m132 71.5v-0.5h0.5q0.5 0 0.5 0.5v0.5h-1v-0.5" fill-opacity=".92157"/>
      <path d="m167 71.5v-0.5h1v1h-1v-0.5" fill-opacity=".4902"/>
      <path d="m132 72.5v-0.5h1v1h-0.5q-0.5 0-0.5-0.5" fill-opacity=".34118"/>
      <path d="m167 72.5v-0.5h1v1h-0.5q-0.5 0-0.5-0.5" fill-opacity=".86667"/>
      <path d="m168 72.5v-0.5h0.5q0.5 0 0.5 0.5v0.5h-1v-0.5" fill-opacity=".0039216"/>
      <path d="m133 73.5v-0.5h0.5q0.5 0 0.5 0.5v0.5h-1v-0.5" fill-opacity=".7451"/>
      <path d="m168 73.5v-0.5h1v1h-1v-0.5" fill-opacity=".21176"/>
      <path d="m133 74.5v-0.5h1v1h-0.5q-0.5 0-0.5-0.5" fill-opacity=".21569"/>
      <path d="m168 74.5v-0.5h1v1h-1v-0.5" fill-opacity=".53725"/>
      <path d="m134 75.5v-0.5h0.5q0.5 0 0.5 0.5v0.5h-1v-0.5" fill-opacity=".68235"/>
      <path d="m168 75.5v-0.5h1v1h-0.5q-0.5 0-0.5-0.5" fill-opacity=".86275"/>
      <path d="m134 76.5v-0.5h1v1h-0.5q-0.5 0-0.5-0.5" fill-opacity=".20784"/>
      <path d="m169 76.5v-0.5h0.5q0.5 0 0.5 0.5v0.5h-1v-0.5" fill-opacity=".17255"/>
      <path d="m97 77.5q0-0.5 0.5-0.5h0.5v1h-1v-0.5" fill-opacity=".031373"/>
      <path d="m98 77.5v-0.5h1v1h-1v-0.5" fill-opacity=".26667"/>
      <path d="m99 77.5v-0.5h1v1h-1v-0.5" fill-opacity=".44314"/>
      <path d="m100 77.5v-0.5h1v1h-1v-0.5" fill-opacity=".60784"/>
      <path d="m101 77.5v-0.5h1v1h-1v-0.5" fill-opacity=".67451"/>
      <path d="m102 77.5v-0.5h1v1h-1v-0.5" fill-opacity=".72549"/>
      <path d="m103 77.5v-0.5h1v1h-1v-0.5" fill-opacity=".72157"/>
      <path d="m104 77.5v-0.5h1v1h-1v-0.5" fill-opacity=".64314"/>
      <path d="m105 77.5v-0.5h1v1h-1v-0.5" fill-opacity=".47059"/>
      <path d="m106 77.5v-0.5h0.5q0.5 0 0.5 0.5v0.5h-1v-0.5" fill-opacity=".2"/>
      <path d="m135 77.5v-0.5h0.5q0.5 0 0.5 0.5v0.5h-1v-0.5" fill-opacity=".78824"/>
      <path d="m169 77.5v-0.5h1v1h-1v-0.5" fill-opacity=".44314"/>
      <path d="m95 78.5q0-0.5 0.5-0.5h0.5v1h-1v-0.5" fill-opacity=".26275"/>
      <path d="m96 78.5v-0.5h1v1h-1v-0.5" fill-opacity=".67843"/>
      <path d="m97 78.5v-0.5h1v0.5q0 0.5-0.5 0.5h-0.5v-0.5" fill-opacity=".96078"/>
      <path d="m98 78.5v-0.5h9v0.5q0 0.5 0.5 0.5h1.5v0.5q0 0.5 0.5 0.5h0.5v0.5q0 0.5 0.5 0.5h0.5v1.5q0 0.5 0.5 0.5h0.5v1.5q0 0.5 0.5 0.5h0.5v2.5q0 0.5 0.5 0.5h0.5v5.5q0 0.5 0.5 0.5h0.5v11h-0.5q-0.5 0-0.5 0.5v4.5h-0.5q-0.5 0-0.5 0.5v2.5h-0.5q-0.5 0-0.5 0.5v2.5h-0.5q-0.5 0-0.5 0.5v0.5h-0.5q-0.5 0-0.5 0.5v1.5h-1.5q-0.5 0-0.5 0.5v0.5h-0.5q-0.5 0-0.5 0.5v0.5h-1.5q-0.5 0-0.5 0.5v0.5h-10v-0.5q0-0.5-0.5-0.5h-1.5v-0.5q0-0.5-0.5-0.5h-1.5v-0.5q0-0.5-0.5-0.5h-0.5v-0.5q0-0.5-0.5-0.5h-0.5v-1.5q0-0.5 0-1t0-1 0-1 0-1 0-1 0-1 0-1 0-1 0-1 0-1 0-1 0-1 0-1 0-1 0-1 0-1 0-1 0-1 0-1 0-1 0-1 0-1 0-1 0-1 0-1 0-1 0-1 0-1 0-1 0-1 0-1v-1.5h0.5q0.5 0 0.5-0.5v-0.5h0.5q0.5 0 0.5-0.5v-0.5h0.5q0.5 0 0.5-0.5v-0.5h1.5q0.5 0 0.5-0.5v-0.5h0.5q0.5 0 0.5-0.5v-0.5h2.5q0.5 0 0.5-0.5"/>
      <path d="m107 78.5v-0.5h1v1h-0.5q-0.5 0-0.5-0.5" fill-opacity=".82353"/>
      <path d="m108 78.5v-0.5h0.5q0.5 0 0.5 0.5v0.5h-1v-0.5" fill-opacity=".30196"/>
      <path d="m135 78.5v-0.5h1v1h-1v-0.5" fill-opacity=".36471"/>
      <path d="m169 78.5v-0.5h1v1h-1v-0.5" fill-opacity=".7098"/>
      <path d="m93 79.5q0-0.5 0.5-0.5h0.5v1h-1v-0.5" fill-opacity=".21569"/>
      <path d="m94 79.5v-0.5h1v0.5q0 0.5-0.5 0.5h-0.5v-0.5" fill-opacity=".79608"/>
      <path d="m109 79.5v-0.5h1v1h-0.5q-0.5 0-0.5-0.5" fill-opacity=".59216"/>
      <path d="m110 79.5v-0.5h0.5q0.5 0 0.5 0.5v0.5h-1v-0.5" fill-opacity=".015686"/>
      <path d="m135 79.5v-0.5h1v1h-0.5q-0.5 0-0.5-0.5" fill-opacity=".027451"/>
      <path d="m136 79.5v-0.5h0.5q0.5 0 0.5 0.5v0.5h-1v-0.5" fill-opacity=".9451"/>
      <path d="m169 79.5v-0.5h1v1h-0.5q-0.5 0-0.5-0.5" fill-opacity=".95686"/>
      <path d="m170 79.5v-0.5h0.5q0.5 0 0.5 0.5v0.5h-1v-0.5" fill-opacity=".019608"/>
      <path d="m91 80.5q0-0.5 0.5-0.5h0.5v1h-1v-0.5" fill-opacity=".0078431"/>
      <path d="m92 80.5v-0.5h1v1h-1v-0.5" fill-opacity=".52549"/>
      <path d="m93 80.5v-0.5h1v0.5q0 0.5-0.5 0.5h-0.5v-0.5" fill-opacity=".99608"/>
      <path d="m110 80.5v-0.5h1v1h-0.5q-0.5 0-0.5-0.5" fill-opacity=".61961"/>
      <path d="m136 80.5v-0.5h1v1h-1v-0.5" fill-opacity=".63922"/>
      <path d="m170 80.5v-0.5h1v1h-1v-0.5" fill-opacity=".20784"/>
      <path d="m90 81.5q0-0.5 0.5-0.5h0.5v1h-1v-0.5" fill-opacity=".027451"/>
      <path d="m91 81.5v-0.5h1v0.5q0 0.5-0.5 0.5h-0.5v-0.5" fill-opacity=".69412"/>
      <path d="m111 81.5v-0.5h0.5q0.5 0 0.5 0.5v0.5h-1v-0.5" fill-opacity=".4"/>
      <path d="m136 81.5v-0.5h1v1h-1v-0.5" fill-opacity=".30588"/>
      <path d="m170 81.5v-0.5h1v1h-1v-0.5" fill-opacity=".42745"/>
      <path d="m89 82.5q0-0.5 0.5-0.5h0.5v1h-1v-0.5" fill-opacity=".027451"/>
      <path d="m90 82.5v-0.5h1v0.5q0 0.5-0.5 0.5h-0.5v-0.5" fill-opacity=".71765"/>
      <path d="m111 82.5v-0.5h1v1h-0.5q-0.5 0-0.5-0.5" fill-opacity=".95294"/>
      <path d="m112 82.5v-0.5h0.5q0.5 0 0.5 0.5v0.5h-1v-0.5" fill-opacity=".086275"/>
      <path d="m136 82.5v-0.5h1v1h-0.5q-0.5 0-0.5-0.5" fill-opacity=".027451"/>
      <path d="m137 82.5v-0.5h0.5q0.5 0 0.5 0.5v0.5h-1v-0.5" fill-opacity=".94902"/>
      <path d="m170 82.5v-0.5h1v1h-1v-0.5" fill-opacity=".64314"/>
      <path d="m88 83.5q0-0.5 0.5-0.5h0.5v1h-1v-0.5" fill-opacity=".0039216"/>
      <path d="m89 83.5v-0.5h1v0.5q0 0.5-0.5 0.5h-0.5v-0.5" fill-opacity=".67059"/>
      <path d="m112 83.5v-0.5h1v1h-1v-0.5" fill-opacity=".57255"/>
      <path d="m137 83.5v-0.5h1v1h-1v-0.5" fill-opacity=".7098"/>
      <path d="m170 83.5v-0.5h1v1h-1v-0.5" fill-opacity=".85098"/>
      <path d="m88 84.5v-0.5h1v1h-1v-0.5" fill-opacity=".51765"/>
      <path d="m112 84.5v-0.5h1v1h-0.5q-0.5 0-0.5-0.5" fill-opacity=".95294"/>
      <path d="m113 84.5v-0.5h0.5q0.5 0 0.5 0.5v0.5h-1v-0.5" fill-opacity=".058824"/>
      <path d="m137 84.5v-0.5h1v1h-1v-0.5" fill-opacity=".46275"/>
      <path d="m170 84.5v-0.5h1v1h-0.5q-0.5 0-0.5-0.5" fill-opacity=".98824"/>
      <path d="m171 84.5v-0.5h0.5q0.5 0 0.5 0.5v0.5h-1v-0.5" fill-opacity=".027451"/>
      <path d="m88 85.5v-0.5h1v0.5q0 0.5 0 1t0 1 0 1 0 1 0 1 0 1 0 1 0 1 0 1 0 1 0 1 0 1 0 1 0 1 0 1 0 1 0 1 0 1 0 1 0 1 0 1 0 1 0 1 0 1 0 1 0 1 0 1 0 1 0 1 0 1 0 1v0.5h-1v-0.5q0-0.5 0-1t0-1 0-1 0-1 0-1 0-1 0-1 0-1 0-1 0-1 0-1 0-1 0-1 0-1 0-1 0-1 0-1 0-1 0-1 0-1 0-1 0-1 0-1 0-1 0-1 0-1 0-1 0-1 0-1 0-1 0-1" fill-opacity=".74902"/>
      <path d="m113 85.5v-0.5h1v1h-1v-0.5" fill-opacity=".39216"/>
      <path d="m137 85.5v-0.5h1v1h-1v-0.5" fill-opacity=".21569"/>
      <path d="m171 85.5v-0.5h1v1h-1v-0.5" fill-opacity=".17647"/>
      <path d="m113 86.5v-0.5h1v1h-1v-0.5" fill-opacity=".71765"/>
      <path d="m137 86.5v-0.5h1v1h-0.5q-0.5 0-0.5-0.5" fill-opacity=".015686"/>
      <path d="m138 86.5v-0.5h0.5q0.5 0 0.5 0.5v0.5h-1v-0.5" fill-opacity=".96471"/>
      <path d="m171 86.5v-0.5h1v1h-1v-0.5" fill-opacity=".34118"/>
      <path d="m113 87.5v-0.5h1v1h-0.5q-0.5 0-0.5-0.5" fill-opacity=".96863"/>
      <path d="m114 87.5v-0.5h0.5q0.5 0 0.5 0.5v0.5h-1v-0.5" fill-opacity=".027451"/>
      <path d="m138 87.5v-0.5h1v1h-1v-0.5" fill-opacity=".80392"/>
      <path d="m171 87.5v-0.5h1v1h-1v-0.5" fill-opacity=".48235"/>
      <path d="m114 88.5v-0.5h1v1h-1v-0.5" fill-opacity=".23922"/>
      <path d="m138 88.5v-0.5h1v1h-1v-0.5" fill-opacity=".63529"/>
      <path d="m171 88.5v-0.5h1v1h-1v-0.5" fill-opacity=".59608"/>
      <path d="m114 89.5v-0.5h1v1h-1v-0.5" fill-opacity=".44314"/>
      <path d="m138 89.5v-0.5h1v1h-1v-0.5" fill-opacity=".47059"/>
      <path d="m171 89.5v-0.5h1v1h-1v-0.5" fill-opacity=".7098"/>
      <path d="m114 90.5v-0.5h1v1h-1v-0.5" fill-opacity=".61961"/>
      <path d="m138 90.5v-0.5h1v1h-1v-0.5" fill-opacity=".3098"/>
      <path d="m171 90.5v-0.5h1v1h-1v-0.5" fill-opacity=".82353"/>
      <path d="m114 91.5v-0.5h1v1h-1v-0.5" fill-opacity=".78039"/>
      <path d="m138 91.5v-0.5h1v1h-1v-0.5" fill-opacity=".20392"/>
      <path d="m171 91.5v-0.5h1v1h-1v-0.5" fill-opacity=".9098"/>
      <path d="m114 92.5v-0.5h1v1h-1v-0.5" fill-opacity=".89412"/>
      <path d="m138 92.5v-0.5h1v1h-1v-0.5" fill-opacity=".1098"/>
      <path d="m171 92.5v-0.5h1v1h-0.5q-0.5 0-0.5-0.5" fill-opacity=".97647"/>
      <path d="m114 93.5v-0.5h1v1h-0.5q-0.5 0-0.5-0.5" fill-opacity=".99216"/>
      <path d="m115 93.5v-0.5h0.5q0.5 0 0.5 0.5v0.5h-1v-0.5" fill-opacity=".015686"/>
      <path d="m138 93.5v-0.5h1v1h-0.5q-0.5 0-0.5-0.5" fill-opacity=".023529"/>
      <path d="m139 93.5v-0.5h0.5q0.5 0 0.5 0.5v0.5h-1v-0.5" fill-opacity=".99608"/>
      <path d="m172 93.5v-0.5h0.5q0.5 0 0.5 0.5v0.5h-1v-0.5" fill-opacity=".039216"/>
      <path d="m115 94.5v-0.5h1v1h-1v-0.5" fill-opacity=".07451"/>
      <path d="m139 94.5v-0.5h1v1h-1v-0.5" fill-opacity=".92941"/>
      <path d="m172 94.5v-0.5h1v1h-1v-0.5" fill-opacity=".10588"/>
      <path d="m115 95.5v-0.5h1v1h-1v-0.5" fill-opacity=".13333"/>
      <path d="m139 95.5v-0.5h1v1h-1v-0.5" fill-opacity=".87059"/>
      <path d="m172 95.5v-0.5h1v1h-1v-0.5" fill-opacity=".13725"/>
      <path d="m115 96.5v-0.5h1v1h-1v-0.5" fill-opacity=".18824"/>
      <path d="m139 96.5v-0.5h1v1h-1v-0.5" fill-opacity=".84314"/>
      <path d="m172 96.5v-0.5h1v1h-1v-0.5" fill-opacity=".15686"/>
      <path d="m115 97.5v-0.5h1v1h-1v-0.5" fill-opacity=".21176"/>
      <path d="m139 97.5v-0.5h1v1h-1v-0.5" fill-opacity=".81176"/>
      <path d="m172 97.5v-0.5h1v1h-1v-0.5" fill-opacity=".18039"/>
      <path d="m115 98.5v-0.5h1v1h-1v-0.5" fill-opacity=".23137"/>
      <path d="m139 98.5v-0.5h1v1h-1v-0.5" fill-opacity=".78039"/>
      <path d="m172 98.5v-0.5h1v1h-1v-0.5" fill-opacity=".19608"/>
      <path d="m115 99.5v-0.5h1v1h-1v-0.5" fill-opacity=".23922"/>
      <path d="m139 99.5v-0.5h1v1h-1v-0.5" fill-opacity=".76078"/>
      <path d="m172 99.5v-0.5h1v1h-1v-0.5" fill-opacity=".17647"/>
      <path d="m115 100.5v-0.5h1v1h-1v-0.5" fill-opacity=".21961"/>
      <path d="m139 100.5v-0.5h1v1h-1v-0.5" fill-opacity=".78824"/>
      <path d="m172 100.5v-0.5h1v1h-1v-0.5" fill-opacity=".15686"/>
      <path d="m115 101.5v-0.5h1v1h-1v-0.5" fill-opacity=".19608"/>
      <path d="m139 101.5v-0.5h1v1h-1v-0.5" fill-opacity=".82353"/>
      <path d="m172 101.5v-0.5h1v1h-1v-0.5" fill-opacity=".13333"/>
      <path d="m115 102.5v-0.5h1v1h-1v-0.5" fill-opacity=".16471"/>
      <path d="m139 102.5v-0.5h1v1h-1v-0.5" fill-opacity=".85882"/>
      <path d="m172 102.5v-0.5h1v1h-1v-0.5" fill-opacity=".10196"/>
      <path d="m115 103.5v-0.5h1v1h-1v-0.5" fill-opacity=".094118"/>
      <path d="m139 103.5v-0.5h1v1h-1v-0.5" fill-opacity=".89412"/>
      <path d="m172 103.5v-0.5h1v0.5q0 0.5-0.5 0.5h-0.5v-0.5" fill-opacity=".035294"/>
      <path d="m115 104.5v-0.5h1v0.5q0 0.5-0.5 0.5h-0.5v-0.5" fill-opacity=".023529"/>
      <path d="m138 104.5q0-0.5 0.5-0.5h0.5v1h-1v-0.5" fill-opacity=".0039216"/>
      <path d="m139 104.5v-0.5h1v0.5q0 0.5-0.5 0.5h-0.5v-0.5" fill-opacity=".97647"/>
      <path d="m171 104.5q0-0.5 0.5-0.5h0.5v1h-1v-0.5" fill-opacity=".97255"/>
      <path d="m114 105.5q0-0.5 0.5-0.5h0.5v1h-1v-0.5" fill-opacity=".93725"/>
      <path d="m138 105.5v-0.5h1v1h-1v-0.5" fill-opacity=".090196"/>
      <path d="m171 105.5v-0.5h1v1h-1v-0.5" fill-opacity=".90588"/>
      <path d="m114 106.5v-0.5h1v1h-1v-0.5" fill-opacity=".80392"/>
      <path d="m138 106.5v-0.5h1v1h-1v-0.5" fill-opacity=".2"/>
      <path d="m171 106.5v-0.5h1v1h-1v-0.5" fill-opacity=".81961"/>
      <path d="m114 107.5v-0.5h1v1h-1v-0.5" fill-opacity=".67059"/>
      <path d="m138 107.5v-0.5h1v1h-1v-0.5" fill-opacity=".31373"/>
      <path d="m171 107.5v-0.5h1v1h-1v-0.5" fill-opacity=".70588"/>
      <path d="m114 108.5v-0.5h1v1h-1v-0.5" fill-opacity=".4902"/>
      <path d="m138 108.5v-0.5h1v1h-1v-0.5" fill-opacity=".47059"/>
      <path d="m171 108.5v-0.5h1v1h-1v-0.5" fill-opacity=".59216"/>
      <path d="m114 109.5v-0.5h1v1h-1v-0.5" fill-opacity=".28235"/>
      <path d="m138 109.5v-0.5h1v1h-1v-0.5" fill-opacity=".66275"/>
      <path d="m171 109.5v-0.5h1v1h-1v-0.5" fill-opacity=".47843"/>
      <path d="m113 110.5q0-0.5 0.5-0.5h0.5v1h-1v-0.5" fill-opacity=".99216"/>
      <path d="m114 110.5v-0.5h1v0.5q0 0.5-0.5 0.5h-0.5v-0.5" fill-opacity=".066667"/>
      <path d="m138 110.5v-0.5h1v1h-1v-0.5" fill-opacity=".8549"/>
      <path d="m171 110.5v-0.5h1v1h-1v-0.5" fill-opacity=".33725"/>
      <path d="m113 111.5v-0.5h1v1h-1v-0.5" fill-opacity=".77255"/>
      <path d="m137 111.5q0-0.5 0.5-0.5h0.5v1h-1v-0.5" fill-opacity=".05098"/>
      <path d="m138 111.5v-0.5h1v0.5q0 0.5-0.5 0.5h-0.5v-0.5" fill-opacity=".99608"/>
      <path d="m171 111.5v-0.5h1v1h-1v-0.5" fill-opacity=".17255"/>
      <path d="m113 112.5v-0.5h1v1h-1v-0.5" fill-opacity=".47451"/>
      <path d="m137 112.5v-0.5h1v1h-1v-0.5" fill-opacity=".2902"/>
      <path d="m170 112.5q0-0.5 0.5-0.5h0.5v1h-1v-0.5" fill-opacity=".98824"/>
      <path d="m171 112.5v-0.5h1v0.5q0 0.5-0.5 0.5h-0.5v-0.5" fill-opacity=".023529"/>
      <path d="m112 113.5q0-0.5 0.5-0.5h0.5v1h-1v-0.5" fill-opacity=".99216"/>
      <path d="m113 113.5v-0.5h1v0.5q0 0.5-0.5 0.5h-0.5v-0.5" fill-opacity=".11765"/>
      <path d="m137 113.5v-0.5h1v1h-1v-0.5" fill-opacity=".56863"/>
      <path d="m170 113.5v-0.5h1v1h-1v-0.5" fill-opacity=".84706"/>
      <path d="m112 114.5v-0.5h1v1h-1v-0.5" fill-opacity=".71765"/>
      <path d="m137 114.5v-0.5h1v0.5q0 0.5-0.5 0.5h-0.5v-0.5" fill-opacity=".85098"/>
      <path d="m170 114.5v-0.5h1v1h-1v-0.5" fill-opacity=".63922"/>
      <path d="m112 115.5v-0.5h1v0.5q0 0.5-0.5 0.5h-0.5v-0.5" fill-opacity=".23922"/>
      <path d="m136 115.5q0-0.5 0.5-0.5h0.5v1h-1v-0.5" fill-opacity=".13333"/>
      <path d="m170 115.5v-0.5h1v1h-1v-0.5" fill-opacity=".42353"/>
      <path d="m111 116.5q0-0.5 0.5-0.5h0.5v1h-1v-0.5" fill-opacity=".7098"/>
      <path d="m136 116.5v-0.5h1v1h-1v-0.5" fill-opacity=".48627"/>
      <path d="m170 116.5v-0.5h1v1h-1v-0.5" fill-opacity=".20784"/>
      <path d="m88 117.5v-0.5h1v1h-1v-0.5" fill-opacity=".72157"/>
      <path d="m110 117.5q0-0.5 0.5-0.5h0.5v1h-1v-0.5" fill-opacity=".95294"/>
      <path d="m111 117.5v-0.5h1v0.5q0 0.5-0.5 0.5h-0.5v-0.5" fill-opacity=".12941"/>
      <path d="m136 117.5v-0.5h1v0.5q0 0.5-0.5 0.5h-0.5v-0.5" fill-opacity=".85882"/>
      <path d="m169 117.5q0-0.5 0.5-0.5h0.5v1h-1v-0.5" fill-opacity=".95686"/>
      <path d="m170 117.5v-0.5h1v0.5q0 0.5-0.5 0.5h-0.5v-0.5" fill-opacity=".019608"/>
      <path d="m88 118.5v-0.5h1v1h-0.5q-0.5 0-0.5-0.5" fill-opacity=".12941"/>
      <path d="m89 118.5v-0.5h0.5q0.5 0 0.5 0.5v0.5h-1v-0.5" fill-opacity=".88235"/>
      <path d="m110 118.5v-0.5h1v0.5q0 0.5-0.5 0.5h-0.5v-0.5" fill-opacity=".32549"/>
      <path d="m135 118.5q0-0.5 0.5-0.5h0.5v1h-1v-0.5" fill-opacity=".23137"/>
      <path d="m169 118.5v-0.5h1v1h-1v-0.5" fill-opacity=".71373"/>
      <path d="m89 119.5v-0.5h1v1h-0.5q-0.5 0-0.5-0.5" fill-opacity=".11373"/>
      <path d="m90 119.5v-0.5h0.5q0.5 0 0.5 0.5v0.5h-1v-0.5" fill-opacity=".80392"/>
      <path d="m108 119.5q0-0.5 0.5-0.5h0.5v1h-1v-0.5" fill-opacity=".99608"/>
      <path d="m109 119.5v-0.5h1v0.5q0 0.5-0.5 0.5h-0.5v-0.5" fill-opacity=".41569"/>
      <path d="m135 119.5v-0.5h1v1h-1v-0.5" fill-opacity=".63137"/>
      <path d="m169 119.5v-0.5h1v1h-1v-0.5" fill-opacity=".44314"/>
      <path d="m90 120.5v-0.5h1v1h-0.5q-0.5 0-0.5-0.5" fill-opacity=".035294"/>
      <path d="m91 120.5v-0.5h1v1h-1v-0.5" fill-opacity=".55686"/>
      <path d="m92 120.5v-0.5h0.5q0.5 0 0.5 0.5v0.5h-1v-0.5" fill-opacity=".98824"/>
      <path d="m107 120.5q0-0.5 0.5-0.5h0.5v1h-1v-0.5" fill-opacity=".9451"/>
      <path d="m108 120.5v-0.5h1v0.5q0 0.5-0.5 0.5h-0.5v-0.5" fill-opacity=".32549"/>
      <path d="m134 120.5q0-0.5 0.5-0.5h0.5v1h-1v-0.5" fill-opacity=".11765"/>
      <path d="m135 120.5v-0.5h1v0.5q0 0.5-0.5 0.5h-0.5v-0.5" fill-opacity=".98039"/>
      <path d="m169 120.5v-0.5h1v0.5q0 0.5-0.5 0.5h-0.5v-0.5" fill-opacity=".17255"/>
      <path d="m92 121.5v-0.5h1v1h-0.5q-0.5 0-0.5-0.5" fill-opacity=".17255"/>
      <path d="m93 121.5v-0.5h1v1h-1v-0.5" fill-opacity=".63529"/>
      <path d="m94 121.5v-0.5h0.5q0.5 0 0.5 0.5v0.5h-1v-0.5" fill-opacity=".97255"/>
      <path d="m105 121.5q0-0.5 0.5-0.5h0.5v1h-1v-0.5" fill-opacity=".97647"/>
      <path d="m106 121.5v-0.5h1v1h-1v-0.5" fill-opacity=".61176"/>
      <path d="m107 121.5v-0.5h1v0.5q0 0.5-0.5 0.5h-0.5v-0.5" fill-opacity=".10196"/>
      <path d="m134 121.5v-0.5h1v1h-1v-0.5" fill-opacity=".57255"/>
      <path d="m168 121.5q0-0.5 0.5-0.5h0.5v1h-1v-0.5" fill-opacity=".86275"/>
      <path d="m94 122.5v-0.5h1v1h-0.5q-0.5 0-0.5-0.5" fill-opacity=".05098"/>
      <path d="m95 122.5v-0.5h1v1h-1v-0.5" fill-opacity=".33725"/>
      <path d="m96 122.5v-0.5h1v1h-1v-0.5" fill-opacity=".57647"/>
      <path d="m97 122.5v-0.5h1v1h-1v-0.5" fill-opacity=".76471"/>
      <path d="m98 122.5v-0.5h1v1h-1v-0.5" fill-opacity=".89804"/>
      <path d="m99 122.5v-0.5h1v1h-1v-0.5" fill-opacity=".96471"/>
      <path d="m100 122.5v-0.5h1v1h-1v-0.5" fill-opacity=".99216"/>
      <path d="m101 122.5v-0.5h1v1h-1v-0.5" fill-opacity=".94902"/>
      <path d="m102 122.5v-0.5h1v1h-1v-0.5" fill-opacity=".84314"/>
      <path d="m103 122.5v-0.5h1v1h-1v-0.5" fill-opacity=".66667"/>
      <path d="m104 122.5v-0.5h1v1h-1v-0.5" fill-opacity=".40392"/>
      <path d="m105 122.5v-0.5h1v0.5q0 0.5-0.5 0.5h-0.5v-0.5" fill-opacity=".078431"/>
      <path d="m133 122.5q0-0.5 0.5-0.5h0.5v1h-1v-0.5" fill-opacity=".086275"/>
      <path d="m134 122.5v-0.5h1v0.5q0 0.5-0.5 0.5h-0.5v-0.5" fill-opacity=".96078"/>
      <path d="m168 122.5v-0.5h1v1h-1v-0.5" fill-opacity=".54118"/>
      <path d="m133 123.5v-0.5h1v1h-1v-0.5" fill-opacity=".61569"/>
      <path d="m168 123.5v-0.5h1v1h-1v-0.5" fill-opacity=".21961"/>
      <path d="m132 124.5q0-0.5 0.5-0.5h0.5v1h-1v-0.5" fill-opacity=".21176"/>
      <path d="m133 124.5v-0.5h1v0.5q0 0.5-0.5 0.5h-0.5v-0.5" fill-opacity=".99608"/>
      <path d="m167 124.5q0-0.5 0.5-0.5h0.5v1h-1v-0.5" fill-opacity=".87059"/>
      <path d="m168 124.5v-0.5h1v0.5q0 0.5-0.5 0.5h-0.5v-0.5" fill-opacity=".0039216"/>
      <path d="m131 125.5q0-0.5 0.5-0.5h0.5v1h-1v-0.5" fill-opacity=".0078431"/>
      <path d="m132 125.5v-0.5h1v0.5q0 0.5-0.5 0.5h-0.5v-0.5" fill-opacity=".78824"/>
      <path d="m167 125.5v-0.5h1v1h-1v-0.5" fill-opacity=".49412"/>
      <path d="m131 126.5v-0.5h1v1h-1v-0.5" fill-opacity=".48235"/>
      <path d="m166 126.5q0-0.5 0.5-0.5h0.5v1h-1v-0.5" fill-opacity=".99608"/>
      <path d="m167 126.5v-0.5h1v0.5q0 0.5-0.5 0.5h-0.5v-0.5" fill-opacity=".12157"/>
      <path d="m130 127.5q0-0.5 0.5-0.5h0.5v1h-1v-0.5" fill-opacity=".21961"/>
      <path d="m131 127.5v-0.5h1v0.5q0 0.5-0.5 0.5h-0.5v-0.5" fill-opacity=".98431"/>
      <path d="m166 127.5v-0.5h1v1h-1v-0.5" fill-opacity=".72941"/>
      <path d="m129 128.5q0-0.5 0.5-0.5h0.5v1h-1v-0.5" fill-opacity=".066667"/>
      <path d="m130 128.5v-0.5h1v0.5q0 0.5-0.5 0.5h-0.5v-0.5" fill-opacity=".87059"/>
      <path d="m166 128.5v-0.5h1v1h-1v-0.5" fill-opacity=".29412"/>
      <path d="m128 129.5q0-0.5 0.5-0.5h0.5v1h-1v-0.5" fill-opacity=".031373"/>
      <path d="m129 129.5v-0.5h1v0.5q0 0.5-0.5 0.5h-0.5v-0.5" fill-opacity=".76471"/>
      <path d="m165 129.5q0-0.5 0.5-0.5h0.5v1h-1v-0.5" fill-opacity=".85098"/>
      <path d="m166 129.5v-0.5h1v0.5q0 0.5-0.5 0.5h-0.5v-0.5" fill-opacity=".0039216"/>
      <path d="m86 130.5q0-0.5 0.5-0.5t0.5 0.5v0.5h-1v-0.5" fill-opacity=".0039216"/>
      <path d="m127 130.5q0-0.5 0.5-0.5h0.5v1h-1v-0.5" fill-opacity=".0078431"/>
      <path d="m128 130.5v-0.5h1v0.5q0 0.5-0.5 0.5h-0.5v-0.5" fill-opacity=".67843"/>
      <path d="m165 130.5v-0.5h1v1h-1v-0.5" fill-opacity=".41176"/>
      <path d="m86 131.5v-0.5h1v1h-1v-0.5" fill-opacity=".29412"/>
      <path d="m87 131.5v-0.5h0.5q0.5 0 0.5 0.5v0.5h-1v-0.5" fill-opacity=".38039"/>
      <path d="m126 131.5q0-0.5 0.5-0.5h0.5v1h-1v-0.5" fill-opacity=".015686"/>
      <path d="m127 131.5v-0.5h1v0.5q0 0.5-0.5 0.5h-0.5v-0.5" fill-opacity=".62745"/>
      <path d="m164 131.5q0-0.5 0.5-0.5h0.5v1h-1v-0.5" fill-opacity=".89804"/>
      <path d="m165 131.5v-0.5h1v0.5q0 0.5-0.5 0.5h-0.5v-0.5" fill-opacity=".031373"/>
      <path d="m86 132.5v-0.5h1v1h-1v-0.5" fill-opacity=".51373"/>
      <path d="m87 132.5v-0.5h1v1h-1v-0.5" fill-opacity=".98824"/>
      <path d="m88 132.5v-0.5h0.5q0.5 0 0.5 0.5v0.5h-1v-0.5" fill-opacity=".32549"/>
      <path d="m125 132.5q0-0.5 0.5-0.5h0.5v1h-1v-0.5" fill-opacity=".035294"/>
      <path d="m126 132.5v-0.5h1v0.5q0 0.5-0.5 0.5h-0.5v-0.5" fill-opacity=".70196"/>
      <path d="m164 132.5v-0.5h1v1h-1v-0.5" fill-opacity=".43137"/>
      <path d="m86 133.5v-0.5h1v1h-1v-0.5" fill-opacity=".72549"/>
      <path d="m88 133.5v-0.5h1v1h-0.5q-0.5 0-0.5-0.5" fill-opacity=".98039"/>
      <path d="m89 133.5v-0.5h0.5q0.5 0 0.5 0.5v0.5h-1v-0.5" fill-opacity=".32941"/>
      <path d="m124 133.5q0-0.5 0.5-0.5h0.5v1h-1v-0.5" fill-opacity=".10196"/>
      <path d="m125 133.5v-0.5h1v0.5q0 0.5-0.5 0.5h-0.5v-0.5" fill-opacity=".77647"/>
      <path d="m163 133.5q0-0.5 0.5-0.5h0.5v1h-1v-0.5" fill-opacity=".90196"/>
      <path d="m164 133.5v-0.5h1v0.5q0 0.5-0.5 0.5h-0.5v-0.5" fill-opacity=".031373"/>
      <path d="m85 134.5q0-0.5 0.5-0.5h0.5v1h-1v-0.5" fill-opacity=".0039216"/>
      <path d="m86 134.5v-0.5h1v0.5q0 0.5-0.5 0.5h-0.5v-0.5" fill-opacity=".93333"/>
      <path d="m89 134.5v-0.5h1v1h-0.5q-0.5 0-0.5-0.5" fill-opacity=".98824"/>
      <path d="m90 134.5v-0.5h0.5q0.5 0 0.5 0.5v0.5h-1v-0.5" fill-opacity=".37647"/>
      <path d="m123 134.5q0-0.5 0.5-0.5h0.5v1h-1v-0.5" fill-opacity=".29804"/>
      <path d="m124 134.5v-0.5h1v0.5q0 0.5-0.5 0.5h-0.5v-0.5" fill-opacity=".92157"/>
      <path d="m163 134.5v-0.5h1v1h-1v-0.5" fill-opacity=".39608"/>
      <path d="m85 135.5v-0.5h1v1h-1v-0.5" fill-opacity=".20392"/>
      <path d="m91 135.5v-0.5h1v1h-0.5q-0.5 0-0.5-0.5" fill-opacity=".5451"/>
      <path d="m92 135.5v-0.5h0.5q0.5 0 0.5 0.5v0.5h-1v-0.5" fill-opacity=".011765"/>
      <path d="m121 135.5q0-0.5 0.5-0.5h0.5v1h-1v-0.5" fill-opacity=".062745"/>
      <path d="m122 135.5v-0.5h1v0.5q0 0.5-0.5 0.5h-0.5v-0.5" fill-opacity=".58039"/>
      <path d="m162 135.5q0-0.5 0.5-0.5h0.5v1h-1v-0.5" fill-opacity=".82353"/>
      <path d="m163 135.5v-0.5h1v0.5q0 0.5-0.5 0.5h-0.5v-0.5" fill-opacity=".0078431"/>
      <path d="m85 136.5v-0.5h1v1h-1v-0.5" fill-opacity=".6"/>
      <path d="m92 136.5v-0.5h1v1h-0.5q-0.5 0-0.5-0.5" fill-opacity=".75294"/>
      <path d="m93 136.5v-0.5h0.5q0.5 0 0.5 0.5v0.5h-1v-0.5" fill-opacity=".1451"/>
      <path d="m119 136.5q0-0.5 0.5-0.5h0.5v1h-1v-0.5" fill-opacity=".011765"/>
      <path d="m120 136.5v-0.5h1v1h-1v-0.5" fill-opacity=".40784"/>
      <path d="m121 136.5v-0.5h1v0.5q0 0.5-0.5 0.5h-0.5v-0.5" fill-opacity=".92157"/>
      <path d="m162 136.5v-0.5h1v0.5q0 0.5-0.5 0.5h-0.5v-0.5" fill-opacity=".27059"/>
      <path d="m84 137.5q0-0.5 0.5-0.5h0.5v1h-1v-0.5" fill-opacity=".2902"/>
      <path d="m85 137.5v-0.5h1v0.5q0 0.5-0.5 0.5h-0.5v-0.5" fill-opacity=".99216"/>
      <path d="m93 137.5v-0.5h1v1h-0.5q-0.5 0-0.5-0.5" fill-opacity=".96863"/>
      <path d="m94 137.5v-0.5h1v1h-1v-0.5" fill-opacity=".49412"/>
      <path d="m95 137.5v-0.5h0.5q0.5 0 0.5 0.5v0.5h-1v-0.5" fill-opacity=".05098"/>
      <path d="m117 137.5q0-0.5 0.5-0.5h0.5v1h-1v-0.5" fill-opacity=".039216"/>
      <path d="m118 137.5v-0.5h1v1h-1v-0.5" fill-opacity=".4"/>
      <path d="m119 137.5v-0.5h1v0.5q0 0.5-0.5 0.5h-0.5v-0.5" fill-opacity=".84314"/>
      <path d="m161 137.5q0-0.5 0.5-0.5h0.5v1h-1v-0.5" fill-opacity=".67059"/>
      <path d="m80 138.5q0-0.5 0.5-0.5h0.5v1h-1v-0.5" fill-opacity=".015686"/>
      <path d="m81 138.5v-0.5h1v1h-1v-0.5" fill-opacity=".1098"/>
      <path d="m82 138.5v-0.5h1v1h-1v-0.5" fill-opacity=".26275"/>
      <path d="m83 138.5v-0.5h1v1h-1v-0.5" fill-opacity=".64706"/>
      <path d="m84 138.5v-0.5h1v0.5q0 0.5-0.5 0.5h-0.5v-0.5" fill-opacity=".98431"/>
      <path d="m95 138.5v-0.5h1v1h-0.5q-0.5 0-0.5-0.5" fill-opacity=".94118"/>
      <path d="m96 138.5v-0.5h1v1h-1v-0.5" fill-opacity=".53333"/>
      <path d="m97 138.5v-0.5h0.5q0.5 0 0.5 0.5v0.5h-1v-0.5" fill-opacity=".13333"/>
      <path d="m114 138.5q0-0.5 0.5-0.5h0.5v1h-1v-0.5" fill-opacity=".011765"/>
      <path d="m115 138.5v-0.5h1v1h-1v-0.5" fill-opacity=".23137"/>
      <path d="m116 138.5v-0.5h1v1h-1v-0.5" fill-opacity=".55294"/>
      <path d="m117 138.5v-0.5h1v0.5q0 0.5-0.5 0.5h-0.5v-0.5" fill-opacity=".93333"/>
      <path d="m160 138.5q0-0.5 0.5-0.5h0.5v1h-1v-0.5" fill-opacity=".94118"/>
      <path d="m161 138.5v-0.5h1v0.5q0 0.5-0.5 0.5h-0.5v-0.5" fill-opacity=".098039"/>
      <path d="m98 139.5v-0.5h1v1h-0.5q-0.5 0-0.5-0.5" fill-opacity=".81569"/>
      <path d="m99 139.5v-0.5h1v1h-1v-0.5" fill-opacity=".5098"/>
      <path d="m100 139.5v-0.5h1v1h-1v-0.5" fill-opacity=".2902"/>
      <path d="m101 139.5v-0.5h0.5q0.5 0 0.5 0.5v0.5h-1v-0.5" fill-opacity=".11765"/>
      <path d="m110 139.5q0-0.5 0.5-0.5h0.5v1h-1v-0.5" fill-opacity=".090196"/>
      <path d="m111 139.5v-0.5h1v1h-1v-0.5" fill-opacity=".25882"/>
      <path d="m112 139.5v-0.5h1v1h-1v-0.5" fill-opacity=".42745"/>
      <path d="m113 139.5v-0.5h1v1h-1v-0.5" fill-opacity=".65098"/>
      <path d="m114 139.5v-0.5h1v0.5q0 0.5-0.5 0.5h-0.5v-0.5" fill-opacity=".92941"/>
      <path d="m160 139.5v-0.5h1v1h-1v-0.5" fill-opacity=".40784"/>
      <path d="m102 140.5v-0.5h1v1h-0.5q-0.5 0-0.5-0.5" fill-opacity=".95294"/>
      <path d="m103 140.5v-0.5h1v1h-1v-0.5" fill-opacity=".87451"/>
      <path d="m104 140.5v-0.5h1v1h-1v-0.5" fill-opacity=".82353"/>
      <path d="m105 140.5v-0.5h1v1h-1v-0.5" fill-opacity=".77255"/>
      <path d="m106 140.5v-0.5h1v1h-1v-0.5" fill-opacity=".77647"/>
      <path d="m107 140.5v-0.5h1v1h-1v-0.5" fill-opacity=".83137"/>
      <path d="m108 140.5v-0.5h1v1h-1v-0.5" fill-opacity=".88235"/>
      <path d="m109 140.5v-0.5h1v0.5q0 0.5-0.5 0.5h-0.5v-0.5" fill-opacity=".94902"/>
      <path d="m159 140.5q0-0.5 0.5-0.5h0.5v1h-1v-0.5" fill-opacity=".72549"/>
      <path d="m160 140.5v-0.5h1v0.5q0 0.5-0.5 0.5h-0.5v-0.5" fill-opacity=".0039216"/>
      <path d="m158 141.5q0-0.5 0.5-0.5h0.5v1h-1v-0.5" fill-opacity=".92549"/>
      <path d="m159 141.5v-0.5h1v0.5q0 0.5-0.5 0.5h-0.5v-0.5" fill-opacity=".098039"/>
      <path d="m158 142.5v-0.5h1v0.5q0 0.5-0.5 0.5h-0.5v-0.5" fill-opacity=".31373"/>
      <path d="m157 143.5q0-0.5 0.5-0.5h0.5v1h-1v-0.5" fill-opacity=".54118"/>
      <path d="m156 144.5q0-0.5 0.5-0.5h0.5v1h-1v-0.5" fill-opacity=".74118"/>
      <path d="m157 144.5v-0.5h1v0.5q0 0.5-0.5 0.5h-0.5v-0.5" fill-opacity=".011765"/>
      <path d="m155 145.5q0-0.5 0.5-0.5h0.5v1h-1v-0.5" fill-opacity=".87059"/>
      <path d="m156 145.5v-0.5h1v0.5q0 0.5-0.5 0.5h-0.5v-0.5" fill-opacity=".082353"/>
      <path d="m154 146.5q0-0.5 0.5-0.5h0.5v1h-1v-0.5" fill-opacity=".92941"/>
      <path d="m155 146.5v-0.5h1v0.5q0 0.5-0.5 0.5h-0.5v-0.5" fill-opacity=".15294"/>
      <path d="m153 147.5q0-0.5 0.5-0.5h0.5v1h-1v-0.5" fill-opacity=".97255"/>
      <path d="m154 147.5v-0.5h1v0.5q0 0.5-0.5 0.5h-0.5v-0.5" fill-opacity=".23922"/>
      <path d="m152 148.5q0-0.5 0.5-0.5h0.5v1h-1v-0.5" fill-opacity=".98039"/>
      <path d="m153 148.5v-0.5h1v0.5q0 0.5-0.5 0.5h-0.5v-0.5" fill-opacity=".30588"/>
      <path d="m151 149.5q0-0.5 0.5-0.5h0.5v1h-1v-0.5" fill-opacity=".98824"/>
      <path d="m152 149.5v-0.5h1v0.5q0 0.5-0.5 0.5h-0.5v-0.5" fill-opacity=".32941"/>
      <path d="m150 150.5q0-0.5 0.5-0.5h0.5v1h-1v-0.5" fill-opacity=".98431"/>
      <path d="m151 150.5v-0.5h1v0.5q0 0.5-0.5 0.5h-0.5v-0.5" fill-opacity=".3451"/>
      <path d="m149 151.5q0-0.5 0.5-0.5h0.5v1h-1v-0.5" fill-opacity=".96863"/>
      <path d="m150 151.5v-0.5h1v0.5q0 0.5-0.5 0.5h-0.5v-0.5" fill-opacity=".29804"/>
      <path d="m148 152.5q0-0.5 0.5-0.5h0.5v1h-1v-0.5" fill-opacity=".9451"/>
      <path d="m149 152.5v-0.5h1v0.5q0 0.5-0.5 0.5h-0.5v-0.5" fill-opacity=".24706"/>
      <path d="m147 153.5q0-0.5 0.5-0.5h0.5v1h-1v-0.5" fill-opacity=".86667"/>
      <path d="m148 153.5v-0.5h1v0.5q0 0.5-0.5 0.5h-0.5v-0.5" fill-opacity=".16471"/>
      <path d="m146 154.5q0-0.5 0.5-0.5h0.5v1h-1v-0.5" fill-opacity=".75686"/>
      <path d="m147 154.5v-0.5h1v0.5q0 0.5-0.5 0.5h-0.5v-0.5" fill-opacity=".078431"/>
      <path d="m145 155.5q0-0.5 0.5-0.5h0.5v1h-1v-0.5" fill-opacity=".56078"/>
      <path d="m146 155.5v-0.5h1v0.5q0 0.5-0.5 0.5h-0.5v-0.5" fill-opacity=".019608"/>
      <path d="m143 156.5q0-0.5 0.5-0.5h0.5v1h-1v-0.5" fill-opacity=".93333"/>
      <path d="m144 156.5v-0.5h1v0.5q0 0.5-0.5 0.5h-0.5v-0.5" fill-opacity=".30588"/>
      <path d="m142 157.5q0-0.5 0.5-0.5h0.5v1h-1v-0.5" fill-opacity=".72941"/>
      <path d="m143 157.5v-0.5h1v0.5q0 0.5-0.5 0.5h-0.5v-0.5" fill-opacity=".11373"/>
      <path d="m140 158.5q0-0.5 0.5-0.5h0.5v1h-1v-0.5" fill-opacity=".94902"/>
      <path d="m141 158.5v-0.5h1v0.5q0 0.5-0.5 0.5h-0.5v-0.5" fill-opacity=".40392"/>
      <path d="m139 159.5q0-0.5 0.5-0.5h0.5v1h-1v-0.5" fill-opacity=".67843"/>
      <path d="m140 159.5v-0.5h1v0.5q0 0.5-0.5 0.5h-0.5v-0.5" fill-opacity=".11765"/>
      <path d="m137 160.5q0-0.5 0.5-0.5h0.5v1h-1v-0.5" fill-opacity=".84706"/>
      <path d="m138 160.5v-0.5h1v0.5q0 0.5-0.5 0.5h-0.5v-0.5" fill-opacity=".27451"/>
      <path d="m135 161.5q0-0.5 0.5-0.5h0.5v1h-1v-0.5" fill-opacity=".90588"/>
      <path d="m136 161.5v-0.5h1v1h-1v-0.5" fill-opacity=".41176"/>
      <path d="m137 161.5v-0.5h1v0.5q0 0.5-0.5 0.5h-0.5v-0.5" fill-opacity=".015686"/>
      <path d="m133 162.5q0-0.5 0.5-0.5h0.5v1h-1v-0.5" fill-opacity=".92549"/>
      <path d="m134 162.5v-0.5h1v1h-1v-0.5" fill-opacity=".47843"/>
      <path d="m135 162.5v-0.5h1v0.5q0 0.5-0.5 0.5h-0.5v-0.5" fill-opacity=".039216"/>
      <path d="m131 163.5q0-0.5 0.5-0.5h0.5v1h-1v-0.5" fill-opacity=".88627"/>
      <path d="m132 163.5v-0.5h1v1h-1v-0.5" fill-opacity=".43922"/>
      <path d="m133 163.5v-0.5h1v0.5q0 0.5-0.5 0.5h-0.5v-0.5" fill-opacity=".039216"/>
      <path d="m129 164.5q0-0.5 0.5-0.5h0.5v1h-1v-0.5" fill-opacity=".77255"/>
      <path d="m130 164.5v-0.5h1v1h-1v-0.5" fill-opacity=".35294"/>
      <path d="m131 164.5v-0.5h1v0.5q0 0.5-0.5 0.5h-0.5v-0.5" fill-opacity=".019608"/>
      <path d="m126 165.5q0-0.5 0.5-0.5h0.5v1h-1v-0.5" fill-opacity=".93333"/>
      <path d="m127 165.5v-0.5h1v1h-1v-0.5" fill-opacity=".59216"/>
      <path d="m128 165.5v-0.5h1v0.5q0 0.5-0.5 0.5h-0.5v-0.5" fill-opacity=".18431"/>
      <path d="m123 166.5q0-0.5 0.5-0.5h0.5v1h-1v-0.5" fill-opacity=".96863"/>
      <path d="m124 166.5v-0.5h1v1h-1v-0.5" fill-opacity=".67451"/>
      <path d="m125 166.5v-0.5h1v1h-1v-0.5" fill-opacity=".31765"/>
      <path d="m126 166.5v-0.5h1v0.5q0 0.5-0.5 0.5h-0.5v-0.5" fill-opacity=".023529"/>
      <path d="m120 167.5q0-0.5 0.5-0.5h0.5v1h-1v-0.5" fill-opacity=".9098"/>
      <path d="m121 167.5v-0.5h1v1h-1v-0.5" fill-opacity=".61569"/>
      <path d="m122 167.5v-0.5h1v1h-1v-0.5" fill-opacity=".3098"/>
      <path d="m123 167.5v-0.5h1v0.5q0 0.5-0.5 0.5h-0.5v-0.5" fill-opacity=".039216"/>
      <path d="m116 168.5q0-0.5 0.5-0.5h0.5v1h-1v-0.5" fill-opacity=".91373"/>
      <path d="m117 168.5v-0.5h1v1h-1v-0.5" fill-opacity=".67843"/>
      <path d="m118 168.5v-0.5h1v1h-1v-0.5" fill-opacity=".42745"/>
      <path d="m119 168.5v-0.5h1v1h-1v-0.5" fill-opacity=".17647"/>
      <path d="m120 168.5v-0.5h1v0.5q0 0.5-0.5 0.5h-0.5v-0.5" fill-opacity=".0039216"/>
      <path d="m110 169.5q0-0.5 0.5-0.5h0.5v1h-1v-0.5" fill-opacity=".98431"/>
      <path d="m111 169.5v-0.5h1v1h-1v-0.5" fill-opacity=".85098"/>
      <path d="m112 169.5v-0.5h1v1h-1v-0.5" fill-opacity=".69804"/>
      <path d="m113 169.5v-0.5h1v1h-1v-0.5" fill-opacity=".51373"/>
      <path d="m114 169.5v-0.5h1v1h-1v-0.5" fill-opacity=".31373"/>
      <path d="m115 169.5v-0.5h1v0.5q0 0.5-0.5 0.5h-0.5v-0.5" fill-opacity=".11373"/>
      <path d="m97 170.5q0-0.5 0.5-0.5h0.5v1h-1v-0.5" fill-opacity=".98431"/>
      <path d="m98 170.5v-0.5h1v1h-1v-0.5" fill-opacity=".96471"/>
      <path d="m99 170.5v-0.5h1v1h-1v-0.5" fill-opacity=".9451"/>
      <path d="m100 170.5v-0.5h1v1h-1v-0.5" fill-opacity=".92549"/>
      <path d="m101 170.5v-0.5h1v1h-1v-0.5" fill-opacity=".87843"/>
      <path d="m102 170.5v-0.5h1v1h-1v-0.5" fill-opacity=".81569"/>
      <path d="m103 170.5v-0.5h1v1h-1v-0.5" fill-opacity=".75686"/>
      <path d="m104 170.5v-0.5h1v1h-1v-0.5" fill-opacity=".6902"/>
      <path d="m105 170.5v-0.5h1v1h-1v-0.5" fill-opacity=".60392"/>
      <path d="m106 170.5v-0.5h1v1h-1v-0.5" fill-opacity=".49804"/>
      <path d="m107 170.5v-0.5h1v1h-1v-0.5" fill-opacity=".39216"/>
      <path d="m108 170.5v-0.5h1v1h-1v-0.5" fill-opacity=".28627"/>
      <path d="m109 170.5v-0.5h1v1h-1v-0.5" fill-opacity=".15294"/>
      <path d="m110 170.5v-0.5h1v0.5q0 0.5-0.5 0.5h-0.5v-0.5" fill-opacity=".015686"/>
     </g>
    </g>
    <path id="Selection" d="m2438.5 3885.7v-1130c42.7 0 155.1-8.6 185.7 17.4 18 15.2 19.7 31.4 24.3 52.6 27.576-49.846 86.364-83.436 190-79.6 288.7-12.6 388.9 342.6 319.6 569.6-39.5 129.5-133.9 238-279.6 229.1-93.7-5.8-160.22-31.148-210-89.1v430c222.3 0 409.5-16.7 590-164.6 329.5-270.1 334.3-805 30-1095-130-124-332.1-190.1-510-190.4h-590v1450zm454.4-544.2c60.7-61.7 55.8-260.1 24.3-335.8-18.3-43.9-51.1-77.1-98.7-87.4-15-2.2-34.8-2.5-50 0-134.1 14.6-111.36 175.22-111.36 273.92 0 40.9 6.0582 87.59 38.728 143.32 30.709 47.391 140.55 61.253 197.04 5.9656z" fill="#fff"/>
   </g>
  </g>
 </g>
</svg>
