<?xml version="1.0" encoding="UTF-8" standalone="no"?>
<!-- Created with Inkscape (http://www.inkscape.org/) -->

<svg
   xmlns:dc="http://purl.org/dc/elements/1.1/"
   xmlns:cc="http://creativecommons.org/ns#"
   xmlns:rdf="http://www.w3.org/1999/02/22-rdf-syntax-ns#"
   xmlns:svg="http://www.w3.org/2000/svg"
   xmlns="http://www.w3.org/2000/svg"
   xmlns:sodipodi="http://sodipodi.sourceforge.net/DTD/sodipodi-0.dtd"
   xmlns:inkscape="http://www.inkscape.org/namespaces/inkscape"
   width="71.815475mm"
   height="110.36906mm"
   viewBox="0 0 71.815475 110.36906"
   version="1.1"
   id="svg8"
   inkscape:version="0.92.0 r15299"
   sodipodi:docname="mouse.svg">
  <defs
     id="defs2" />
  <sodipodi:namedview
     id="base"
     pagecolor="#ffffff"
     bordercolor="#666666"
     borderopacity="1.0"
     inkscape:pageopacity="0.0"
     inkscape:pageshadow="2"
     inkscape:zoom="0.35"
     inkscape:cx="-380.66174"
     inkscape:cy="341.53906"
     inkscape:document-units="mm"
     inkscape:current-layer="layer1"
     showgrid="false"
     fit-margin-top="0"
     fit-margin-left="0"
     fit-margin-right="0"
     fit-margin-bottom="0"
     inkscape:window-width="1366"
     inkscape:window-height="693"
     inkscape:window-x="-9"
     inkscape:window-y="-9"
     inkscape:window-maximized="1" />
  <metadata
     id="metadata5">
    <rdf:RDF>
      <cc:Work
         rdf:about="">
        <dc:format>image/svg+xml</dc:format>
        <dc:type
           rdf:resource="http://purl.org/dc/dcmitype/StillImage" />
        <dc:title></dc:title>
      </cc:Work>
    </rdf:RDF>
  </metadata>
  <g
     inkscape:label="Layer 1"
     inkscape:groupmode="layer"
     id="layer1"
     transform="translate(-68.791664,-49.047619)">
    <g
       id="g4507">
      <path
         id="rect4485"
         transform="matrix(0.26458333,0,0,0.26458333,68.791664,49.047619)"
         d="M 135.71484 0 C 60.52913 -1.8947806e-014 0 60.52913 0 135.71484 L 0 281.42773 C 0 356.61345 60.52913 417.14258 135.71484 417.14258 C 210.90056 417.14258 271.42773 356.61345 271.42773 281.42773 L 271.42773 135.71484 C 271.42773 60.52913 210.90056 0 135.71484 0 z M 135.71484 68.572266 C 146.00341 68.572266 154.28516 76.999697 154.28516 87.46875 L 154.28516 149.67383 C 154.28516 160.14288 146.00341 168.57227 135.71484 168.57227 C 125.42627 168.57227 117.14258 160.14288 117.14258 149.67383 L 117.14258 87.46875 C 117.14258 76.999697 125.42627 68.572266 135.71484 68.572266 z "
         style="opacity:1;fill:#271414;fill-opacity:1;fill-rule:nonzero;stroke:none;stroke-width:37.79527664;stroke-linecap:butt;stroke-linejoin:miter;stroke-miterlimit:4;stroke-dasharray:none;stroke-dashoffset:0;stroke-opacity:1" />
    </g>
  </g>
</svg>
